<svg version="1.1" xmlns="http://www.w3.org/2000/svg" viewBox="0 0 149.74646722295915 181.1587270375095"
  width="149.74646722295915" height="181.1587270375095" filter="invert(93%) hue-rotate(180deg)">
  <g transform="translate(13.41440608052892 110.38276509287323) rotate(0 58.72732611121478 6.145881450612478)"
    stroke="none">
    <path fill="#1e1e1e"
      d="M 1.65,-0.60 Q 1.65,-0.60 3.16,1.29 4.67,3.18 5.33,4.54 5.99,5.89 7.02,6.96 8.05,8.03 9.48,8.50 10.91,8.96 11.88,8.02 12.84,7.09 13.61,6.20 14.39,5.30 15.74,3.86 17.09,2.41 18.25,2.22 19.42,2.03 20.77,2.55 22.12,3.06 23.55,4.37 24.98,5.67 26.11,5.46 27.23,5.24 28.20,4.26 29.17,3.27 30.26,2.63 31.35,1.99 33.28,1.97 35.22,1.95 36.48,2.75 37.73,3.56 38.76,4.62 39.79,5.67 41.36,6.31 42.93,6.94 44.34,6.84 45.75,6.74 46.97,5.70 48.19,4.67 50.14,4.66 52.09,4.65 53.32,5.20 54.54,5.75 55.71,6.31 56.88,6.87 58.16,7.44 59.43,8.00 60.63,6.40 61.83,4.80 64.15,3.85 66.48,2.91 67.78,3.41 69.09,3.92 70.07,4.52 71.06,5.12 72.71,5.85 74.36,6.58 75.68,6.10 77.01,5.62 77.81,4.76 78.61,3.90 79.65,2.84 80.70,1.78 82.22,0.91 83.75,0.04 84.96,-0.32 86.18,-0.70 87.94,-0.47 89.69,-0.24 91.31,0.26 92.93,0.77 94.72,1.61 96.52,2.45 98.39,3.35 100.27,4.25 101.45,4.84 102.64,5.42 103.99,5.64 105.34,5.87 107.21,5.11 109.08,4.36 110.46,4.03 111.84,3.71 114.94,5.36 118.05,7.02 118.22,7.14 118.39,7.27 118.51,7.44 118.63,7.62 118.69,7.82 118.75,8.03 118.74,8.24 118.74,8.45 118.66,8.65 118.59,8.85 118.45,9.01 118.32,9.18 118.14,9.29 117.96,9.40 117.75,9.45 117.54,9.50 117.33,9.48 117.12,9.46 116.92,9.37 116.73,9.29 116.57,9.14 116.42,9.00 116.31,8.82 116.21,8.63 116.17,8.42 116.14,8.21 116.17,8.00 116.20,7.79 116.29,7.60 116.39,7.41 116.54,7.26 116.69,7.11 116.89,7.02 117.08,6.93 117.29,6.90 117.50,6.88 117.71,6.92 117.92,6.96 118.10,7.07 118.28,7.17 118.42,7.33 118.56,7.49 118.65,7.69 118.73,7.89 118.74,8.10 118.76,8.31 118.70,8.52 118.65,8.72 118.53,8.90 118.42,9.08 118.25,9.21 118.08,9.34 117.88,9.41 117.68,9.48 117.47,9.49 117.26,9.49 117.06,9.42 116.85,9.36 116.85,9.36 116.85,9.36 115.34,9.20 113.83,9.03 112.62,9.28 111.40,9.52 109.99,10.15 108.57,10.78 106.71,11.17 104.84,11.56 103.61,11.41 102.38,11.27 101.23,10.92 100.08,10.58 98.89,9.97 97.71,9.37 95.86,8.41 94.01,7.45 92.59,6.68 91.16,5.90 89.23,5.07 87.30,4.23 85.79,4.81 84.28,5.38 83.29,6.40 82.31,7.41 81.10,8.67 79.90,9.93 78.44,10.77 76.98,11.61 75.59,11.76 74.20,11.91 72.37,11.29 70.54,10.67 69.42,10.15 68.30,9.62 67.25,8.63 66.20,7.63 65.23,8.81 64.26,9.99 63.15,11.18 62.04,12.37 59.87,12.83 57.69,13.29 56.03,12.57 54.37,11.86 53.21,11.24 52.04,10.63 50.82,10.38 49.60,10.13 48.65,10.93 47.71,11.73 46.71,12.10 45.71,12.47 44.47,12.60 43.23,12.73 42.11,12.49 40.98,12.24 39.56,11.69 38.14,11.13 36.92,10.33 35.69,9.52 34.54,8.24 33.38,6.96 32.71,7.84 32.05,8.71 30.23,9.96 28.41,11.21 27.36,11.48 26.32,11.75 24.74,11.54 23.15,11.32 21.57,9.82 19.99,8.31 18.87,9.56 17.76,10.80 16.58,12.16 15.40,13.52 14.03,14.17 12.66,14.82 11.17,14.92 9.67,15.03 8.51,14.78 7.35,14.54 5.84,13.92 4.34,13.30 3.05,12.29 1.77,11.28 0.91,10.02 0.05,8.76 -0.74,7.11 -1.53,5.45 -1.59,3.02 -1.65,0.60 -1.70,0.39 -1.75,0.18 -1.74,-0.02 -1.74,-0.23 -1.69,-0.44 -1.63,-0.64 -1.53,-0.83 -1.43,-1.02 -1.29,-1.17 -1.14,-1.33 -0.97,-1.45 -0.79,-1.57 -0.59,-1.64 -0.39,-1.71 -0.18,-1.73 0.02,-1.76 0.23,-1.73 0.44,-1.70 0.64,-1.62 0.84,-1.54 1.01,-1.42 1.18,-1.30 1.32,-1.14 1.46,-0.98 1.55,-0.79 1.65,-0.60 1.65,-0.60 L 1.65,-0.60 Z">
    </path>
  </g>
  <g transform="translate(13.41440608052892 75.55611222262019) rotate(0 39.265370355079654 3.755799799207523)"
    stroke="none">
    <path fill="#1e1e1e"
      d="M 1.30,-0.65 Q 1.30,-0.65 2.74,0.57 4.19,1.80 5.65,3.37 7.11,4.95 8.50,5.39 9.89,5.83 11.67,4.84 13.44,3.84 14.77,2.72 16.10,1.60 16.94,0.56 17.78,-0.47 20.15,-1.03 22.53,-1.59 24.55,-0.61 26.58,0.36 27.61,1.06 28.65,1.76 29.46,0.85 30.26,-0.04 31.17,-0.85 32.08,-1.65 34.12,-2.43 36.16,-3.21 37.40,-2.68 38.64,-2.15 40.02,-1.14 41.41,-0.13 42.51,0.63 43.61,1.40 44.45,2.30 45.29,3.19 46.45,2.09 47.60,0.98 48.94,-0.19 50.28,-1.37 51.35,-1.68 52.43,-1.98 53.70,-1.64 54.96,-1.29 56.02,-0.42 57.08,0.44 57.95,1.08 58.82,1.72 59.90,2.68 60.98,3.64 62.83,2.44 64.68,1.24 66.02,-0.13 67.36,-1.52 68.64,-1.85 69.93,-2.19 71.53,-1.31 73.14,-0.43 74.82,0.66 76.51,1.76 77.26,1.98 78.01,2.20 78.22,2.15 78.42,2.10 78.64,2.12 78.85,2.14 79.04,2.22 79.24,2.31 79.40,2.45 79.55,2.59 79.66,2.78 79.76,2.96 79.80,3.17 79.84,3.38 79.81,3.59 79.78,3.80 79.68,3.99 79.59,4.18 79.44,4.33 79.29,4.48 79.10,4.57 78.91,4.67 78.70,4.69 78.48,4.72 78.28,4.68 78.07,4.64 77.88,4.53 77.70,4.43 77.56,4.27 77.42,4.11 77.33,3.92 77.25,3.72 77.23,3.51 77.22,3.30 77.27,3.09 77.32,2.89 77.44,2.71 77.55,2.53 77.72,2.40 77.88,2.26 78.08,2.19 78.28,2.12 78.50,2.11 78.71,2.11 78.91,2.17 79.11,2.24 79.29,2.36 79.46,2.48 79.58,2.66 79.70,2.83 79.77,3.03 79.83,3.24 79.82,3.45 79.81,3.66 79.74,3.86 79.67,4.06 79.53,4.23 79.40,4.39 79.22,4.50 79.04,4.62 79.04,4.62 79.04,4.62 76.35,5.24 73.67,5.86 72.71,5.16 71.76,4.46 70.47,3.43 69.19,2.41 68.59,3.33 67.99,4.25 67.23,5.15 66.46,6.04 65.73,6.99 65.00,7.94 63.87,8.68 62.75,9.41 61.52,9.39 60.30,9.36 58.97,8.37 57.63,7.38 56.73,6.57 55.83,5.76 54.47,4.20 53.11,2.63 52.30,3.40 51.48,4.16 50.66,5.16 49.83,6.15 49.02,6.85 48.20,7.55 45.92,7.84 43.63,8.12 42.05,6.96 40.47,5.79 39.32,4.97 38.17,4.14 37.10,2.75 36.03,1.36 35.18,2.22 34.34,3.08 33.59,4.15 32.83,5.23 31.75,6.10 30.66,6.97 28.67,7.00 26.68,7.04 24.97,6.02 23.26,5.00 22.28,4.53 21.29,4.05 20.62,4.94 19.95,5.82 19.15,6.56 18.35,7.30 17.39,8.05 16.44,8.81 15.36,9.46 14.29,10.11 13.02,10.69 11.75,11.26 10.54,11.44 9.33,11.62 8.12,11.45 6.92,11.28 5.82,10.84 4.71,10.39 3.78,9.66 2.85,8.94 2.02,8.06 1.20,7.18 0.07,5.83 -1.05,4.47 -1.17,2.56 -1.30,0.65 -1.35,0.48 -1.41,0.32 -1.43,0.14 -1.45,-0.02 -1.42,-0.20 -1.40,-0.37 -1.33,-0.53 -1.27,-0.70 -1.17,-0.84 -1.06,-0.98 -0.93,-1.09 -0.80,-1.21 -0.64,-1.29 -0.48,-1.36 -0.31,-1.40 -0.14,-1.44 0.02,-1.44 0.20,-1.43 0.37,-1.39 0.54,-1.34 0.69,-1.26 0.84,-1.17 0.97,-1.06 1.10,-0.94 1.20,-0.79 1.30,-0.65 1.30,-0.65 L 1.30,-0.65 Z">
    </path>
  </g>
  <g transform="translate(12.731514444562094 18.194517284033964) rotate(0 0.3414327931571961 16.0475887500848)"
    stroke="none">
    <path fill="#1971c2"
      d="M 1.74,0 Q 1.74,0 2.45,3.14 3.17,6.28 3.18,8.59 3.19,10.91 3.20,14.05 3.21,17.20 3.21,20.89 3.20,24.58 2.60,26.97 1.99,29.36 1.97,29.52 1.95,29.67 1.90,29.82 1.84,29.97 1.75,30.10 1.66,30.23 1.54,30.33 1.42,30.44 1.28,30.51 1.14,30.59 0.99,30.62 0.84,30.66 0.68,30.66 0.52,30.66 0.37,30.62 0.21,30.59 0.07,30.51 -0.06,30.44 -0.18,30.33 -0.30,30.23 -0.39,30.10 -0.48,29.97 -0.53,29.82 -0.59,29.67 -0.61,29.52 -0.63,29.36 -0.51,28.98 -0.39,28.60 -0.24,28.45 -0.09,28.30 0.09,28.20 0.28,28.11 0.49,28.08 0.70,28.05 0.91,28.08 1.12,28.12 1.30,28.22 1.49,28.33 1.63,28.48 1.78,28.64 1.86,28.83 1.95,29.03 1.97,29.24 1.99,29.45 1.94,29.66 1.89,29.86 1.78,30.04 1.66,30.23 1.50,30.36 1.34,30.49 1.14,30.57 0.94,30.65 0.73,30.65 0.51,30.66 0.31,30.60 0.11,30.54 -0.06,30.42 -0.23,30.30 -0.36,30.13 -0.48,29.95 -0.55,29.75 -0.61,29.55 -0.61,29.34 -0.60,29.12 -0.53,28.92 -0.46,28.72 -0.33,28.56 -0.20,28.39 -0.02,28.27 0.15,28.16 0.35,28.10 0.56,28.05 0.77,28.07 0.98,28.08 1.18,28.16 1.37,28.24 1.53,28.38 1.69,28.53 1.80,28.71 1.91,28.89 1.95,29.10 1.99,29.31 1.96,29.52 1.94,29.73 1.96,29.54 1.99,29.36 1.97,29.52 1.95,29.67 1.90,29.82 1.84,29.97 1.75,30.10 1.66,30.23 1.54,30.33 1.42,30.44 1.28,30.51 1.14,30.59 0.99,30.62 0.84,30.66 0.68,30.66 0.52,30.66 0.37,30.62 0.21,30.59 0.07,30.51 -0.06,30.44 -0.18,30.33 -0.30,30.23 -0.39,30.10 -0.48,29.97 -0.53,29.82 -0.59,29.67 -0.61,29.52 -0.63,29.36 -1.91,26.97 -3.20,24.58 -3.21,20.89 -3.21,17.20 -3.20,14.05 -3.19,10.91 -3.18,8.59 -3.17,6.28 -2.45,3.14 -1.74,0 -1.72,-0.20 -1.69,-0.41 -1.62,-0.61 -1.54,-0.81 -1.42,-0.98 -1.30,-1.15 -1.15,-1.29 -0.99,-1.43 -0.80,-1.53 -0.61,-1.63 -0.41,-1.68 -0.21,-1.73 0.00,-1.73 0.21,-1.73 0.41,-1.68 0.61,-1.63 0.80,-1.53 0.99,-1.43 1.15,-1.29 1.30,-1.15 1.42,-0.98 1.54,-0.81 1.62,-0.61 1.69,-0.41 1.72,-0.20 1.74,0.00 1.74,0.00 L 1.74,0 Z">
    </path>
  </g>
  <g transform="translate(10 18.194517284033964) rotate(0 18.779090169820677 10.58457288578677)" stroke="none">
    <path fill="#1971c2"
      d="M -1.28,-1.02 Q -1.28,-1.02 -0.91,-2.35 -0.54,-3.68 0.81,-4.77 2.17,-5.86 3.69,-6.56 5.21,-7.26 7.24,-7.93 9.27,-8.60 12.46,-9.12 15.65,-9.63 18.30,-10.03 20.95,-10.42 23.49,-10.41 26.03,-10.39 28.48,-9.70 30.92,-9.00 33.13,-6.81 35.34,-4.63 36.63,-2.17 37.92,0.27 38.67,2.58 39.42,4.90 39.75,6.99 40.08,9.08 40.21,10.98 40.34,12.88 40.36,14.87 40.37,16.87 40.37,18.30 40.36,19.73 40.10,20.99 39.84,22.25 39.17,23.69 38.51,25.13 37.86,26.45 37.21,27.78 34.89,28.66 32.56,29.54 30.04,30.15 27.51,30.77 24.81,31.23 22.11,31.69 19.69,31.89 17.28,32.09 15.30,31.96 13.32,31.84 10.65,30.56 7.98,29.29 7.78,29.22 7.58,29.15 7.41,29.03 7.24,28.90 7.12,28.72 7.00,28.55 6.94,28.34 6.88,28.14 6.90,27.93 6.91,27.71 6.98,27.52 7.06,27.32 7.20,27.16 7.34,26.99 7.52,26.88 7.70,26.77 7.91,26.73 8.12,26.68 8.33,26.70 8.54,26.73 8.73,26.82 8.92,26.90 9.08,27.05 9.23,27.20 9.33,27.38 9.43,27.57 9.47,27.78 9.50,27.99 9.47,28.20 9.44,28.41 9.34,28.60 9.24,28.79 9.08,28.93 8.93,29.08 8.74,29.17 8.54,29.26 8.33,29.28 8.12,29.30 7.91,29.26 7.71,29.21 7.52,29.10 7.34,29.00 7.20,28.83 7.07,28.67 6.99,28.48 6.91,28.28 6.90,28.07 6.88,27.85 6.94,27.65 7.00,27.44 7.12,27.27 7.23,27.09 7.40,26.96 7.57,26.83 7.77,26.77 7.97,26.70 8.19,26.70 8.40,26.70 8.40,26.70 8.40,26.70 11.06,26.28 13.73,25.87 15.28,25.99 16.82,26.11 19.00,25.95 21.18,25.79 23.74,25.41 26.31,25.04 28.79,24.61 31.27,24.18 32.61,24.33 33.94,24.48 34.21,23.45 34.48,22.41 34.58,21.10 34.69,19.79 34.63,18.40 34.58,17.02 34.50,15.14 34.42,13.27 34.31,11.62 34.20,9.96 33.97,8.31 33.75,6.66 33.19,4.79 32.62,2.92 31.76,1.08 30.89,-0.76 29.86,-2.23 28.83,-3.70 27.36,-4.20 25.89,-4.71 23.83,-4.75 21.78,-4.80 19.15,-4.41 16.52,-4.02 13.77,-3.61 11.02,-3.20 9.23,-2.63 7.44,-2.06 5.56,-1.15 3.68,-0.23 2.48,0.39 1.28,1.02 1.14,1.16 1.00,1.30 0.82,1.40 0.65,1.50 0.46,1.56 0.27,1.61 0.08,1.62 -0.11,1.63 -0.31,1.60 -0.50,1.56 -0.68,1.48 -0.86,1.39 -1.01,1.27 -1.17,1.15 -1.29,0.99 -1.41,0.83 -1.49,0.65 -1.57,0.47 -1.60,0.27 -1.64,0.08 -1.62,-0.11 -1.61,-0.31 -1.55,-0.50 -1.49,-0.68 -1.38,-0.85 -1.28,-1.02 -1.28,-1.02 L -1.28,-1.02 Z">
    </path>
  </g>
  <g transform="translate(70.09308333349588 10.682904660792815) rotate(0 -0.3414327931571961 17.07190015438249)"
    stroke="none">
    <path fill="#1e1e1e"
      d="M 1.48,0 Q 1.48,0 2.25,2.15 3.02,4.31 3.06,6.80 3.09,9.29 3.12,13.10 3.16,16.90 3.16,19.90 3.17,22.89 3.17,25.14 3.16,27.39 3.09,29.14 3.02,30.89 1.81,32.65 0.60,34.41 0.52,34.61 0.44,34.80 0.31,34.97 0.17,35.13 -0.00,35.24 -0.18,35.35 -0.39,35.40 -0.59,35.45 -0.80,35.43 -1.02,35.41 -1.21,35.32 -1.40,35.23 -1.56,35.09 -1.72,34.94 -1.82,34.76 -1.92,34.57 -1.95,34.36 -1.99,34.15 -1.96,33.94 -1.93,33.73 -1.83,33.54 -1.73,33.35 -1.58,33.21 -1.43,33.06 -1.23,32.97 -1.04,32.88 -0.83,32.85 -0.62,32.83 -0.41,32.87 -0.20,32.91 -0.02,33.02 0.15,33.13 0.29,33.29 0.43,33.45 0.51,33.65 0.59,33.84 0.61,34.06 0.62,34.27 0.56,34.47 0.51,34.68 0.39,34.86 0.27,35.03 0.11,35.16 -0.05,35.29 -0.25,35.36 -0.45,35.43 -0.67,35.43 -0.88,35.44 -1.08,35.37 -1.28,35.31 -1.45,35.18 -1.62,35.05 -1.74,34.88 -1.86,34.70 -1.92,34.50 -1.98,34.29 -1.97,34.08 -1.96,33.87 -1.96,33.87 -1.96,33.87 -2.49,32.37 -3.02,30.87 -3.09,29.13 -3.16,27.39 -3.17,25.14 -3.17,22.89 -3.16,19.90 -3.16,16.90 -3.12,13.10 -3.09,9.29 -3.06,6.80 -3.02,4.31 -2.25,2.15 -1.48,0 -1.46,-0.17 -1.44,-0.35 -1.37,-0.52 -1.31,-0.68 -1.21,-0.83 -1.11,-0.98 -0.97,-1.10 -0.84,-1.22 -0.68,-1.30 -0.52,-1.38 -0.35,-1.42 -0.17,-1.47 0.00,-1.47 0.17,-1.47 0.35,-1.42 0.52,-1.38 0.68,-1.30 0.84,-1.22 0.97,-1.10 1.11,-0.98 1.21,-0.83 1.31,-0.68 1.37,-0.52 1.44,-0.35 1.46,-0.17 1.48,0.00 1.48,0.00 L 1.48,0 Z">
    </path>
  </g>
  <g transform="translate(75.55611222262007 12.731514444562094) rotate(0 13.31607430552259 16.730480386051454)"
    stroke="none">
    <path fill="#1e1e1e"
      d="M -0.45,-1.80 Q -0.45,-1.80 0.98,-2.73 2.42,-3.66 4.33,-4.05 6.25,-4.45 8.38,-4.63 10.52,-4.81 13.20,-4.86 15.88,-4.91 17.94,-4.73 20.00,-4.55 21.34,-4.48 22.68,-4.41 23.92,-4.15 25.17,-3.88 27.03,-2.78 28.89,-1.68 29.76,-0.20 30.63,1.28 31.04,2.66 31.44,4.04 31.54,6.06 31.64,8.08 31.94,11.11 32.24,14.15 32.46,15.58 32.68,17.02 32.79,18.59 32.90,20.17 32.95,21.63 32.99,23.09 33.01,24.50 33.03,25.91 33.03,27.71 33.03,29.52 33.01,30.95 32.99,32.39 32.66,33.50 32.33,34.61 31.41,36.18 30.49,37.75 29.19,38.07 27.90,38.38 25.89,38.21 23.89,38.04 22.22,37.79 20.55,37.54 18.95,37.45 17.36,37.36 15.71,37.32 14.05,37.28 12.36,37.28 10.68,37.27 9.18,37.26 7.67,37.25 6.25,37.25 4.83,37.25 3.45,37.25 2.07,37.24 -0.65,36.69 -3.39,36.13 -3.60,36.10 -3.81,36.07 -4.00,35.98 -4.19,35.88 -4.33,35.73 -4.48,35.58 -4.58,35.39 -4.67,35.20 -4.70,34.98 -4.72,34.77 -4.68,34.57 -4.64,34.36 -4.53,34.17 -4.43,33.99 -4.27,33.85 -4.11,33.71 -3.91,33.63 -3.71,33.54 -3.50,33.53 -3.29,33.51 -3.08,33.57 -2.88,33.62 -2.70,33.74 -2.52,33.85 -2.39,34.02 -2.26,34.19 -2.19,34.39 -2.12,34.59 -2.11,34.80 -2.11,35.01 -2.17,35.21 -2.24,35.42 -2.36,35.59 -2.49,35.76 -2.66,35.88 -2.84,36.00 -3.04,36.06 -3.24,36.12 -3.46,36.12 -3.67,36.11 -3.87,36.03 -4.07,35.96 -4.23,35.82 -4.40,35.69 -4.51,35.51 -4.62,35.33 -4.67,35.12 -4.72,34.92 -4.70,34.70 -4.68,34.49 -4.60,34.30 -4.51,34.10 -4.37,33.95 -4.22,33.79 -4.04,33.69 -3.85,33.58 -3.64,33.55 -3.43,33.51 -3.43,33.51 -3.43,33.51 -1.85,32.51 -0.26,31.52 0.88,31.28 2.03,31.04 3.44,31.04 4.85,31.04 6.28,31.04 7.71,31.05 9.23,31.06 10.76,31.07 12.49,31.10 14.23,31.14 16.00,31.20 17.77,31.27 19.63,31.41 21.49,31.55 24.29,31.80 27.09,32.04 27.07,30.79 27.04,29.54 27.02,27.76 27.00,25.99 26.98,24.63 26.96,23.27 26.93,21.93 26.89,20.58 26.80,19.24 26.71,17.89 26.46,16.16 26.22,14.43 26.16,12.73 26.11,11.03 25.88,9.62 25.65,8.21 25.63,6.34 25.60,4.46 25.02,3.34 24.43,2.23 23.40,1.85 22.36,1.47 20.92,1.39 19.47,1.32 17.75,1.16 16.03,1.01 13.51,1.09 10.99,1.17 9.20,1.30 7.40,1.43 5.63,1.76 3.85,2.08 2.15,1.94 0.45,1.80 0.22,1.82 0.00,1.85 -0.21,1.83 -0.43,1.80 -0.64,1.72 -0.85,1.64 -1.04,1.52 -1.22,1.39 -1.37,1.22 -1.52,1.05 -1.62,0.86 -1.73,0.66 -1.78,0.44 -1.84,0.22 -1.84,0.00 -1.84,-0.21 -1.79,-0.43 -1.73,-0.65 -1.63,-0.85 -1.53,-1.04 -1.38,-1.21 -1.23,-1.38 -1.05,-1.51 -0.86,-1.64 -0.65,-1.72 -0.45,-1.80 -0.45,-1.80 L -0.45,-1.80 Z">
    </path>
  </g>
  <g transform="translate(14.78016330280991 152.72106966084596) rotate(0 -0.682878611140552 7.511638672893525)"
    stroke="none">
    <path fill="#1e1e1e"
      d="M 1.33,0 Q 1.33,0 2.15,1.17 2.97,2.35 2.81,4.04 2.66,5.72 2.60,7.03 2.53,8.33 2.27,9.88 2.01,11.43 0.98,13.27 -0.05,15.11 -0.10,15.31 -0.15,15.52 -0.26,15.70 -0.37,15.88 -0.54,16.02 -0.70,16.15 -0.90,16.23 -1.10,16.30 -1.31,16.31 -1.52,16.32 -1.72,16.26 -1.93,16.20 -2.10,16.08 -2.28,15.96 -2.40,15.79 -2.53,15.62 -2.59,15.41 -2.66,15.21 -2.66,15.00 -2.65,14.79 -2.58,14.59 -2.51,14.39 -2.38,14.22 -2.25,14.05 -2.07,13.94 -1.90,13.82 -1.69,13.76 -1.48,13.71 -1.27,13.73 -1.06,13.74 -0.86,13.82 -0.67,13.90 -0.51,14.04 -0.35,14.18 -0.24,14.37 -0.13,14.55 -0.09,14.76 -0.05,14.97 -0.07,15.18 -0.10,15.39 -0.19,15.58 -0.28,15.77 -0.43,15.92 -0.58,16.07 -0.77,16.17 -0.96,16.27 -1.17,16.30 -1.38,16.33 -1.59,16.29 -1.80,16.26 -1.98,16.15 -2.17,16.05 -2.31,15.90 -2.46,15.74 -2.54,15.55 -2.63,15.35 -2.65,15.14 -2.67,14.93 -2.67,14.93 -2.67,14.93 -3.36,12.67 -4.06,10.41 -3.85,9.19 -3.65,7.96 -3.55,6.44 -3.45,4.91 -3.21,3.63 -2.97,2.35 -2.15,1.17 -1.33,0 -1.31,-0.15 -1.29,-0.31 -1.23,-0.46 -1.17,-0.61 -1.08,-0.75 -0.99,-0.88 -0.87,-0.98 -0.75,-1.09 -0.61,-1.17 -0.47,-1.24 -0.31,-1.28 -0.16,-1.32 0.00,-1.32 0.16,-1.32 0.31,-1.28 0.47,-1.24 0.61,-1.17 0.75,-1.09 0.87,-0.98 0.99,-0.88 1.08,-0.75 1.17,-0.61 1.23,-0.46 1.29,-0.31 1.31,-0.15 1.33,0.00 1.33,0.00 L 1.33,0 Z">
    </path>
  </g>
  <g transform="translate(22.291788950877276 154.76969246944134) rotate(0 3.7558128240336828 7.511651697719742)"
    stroke="none">
    <path fill="#1e1e1e"
      d="M -0.58,-2.05 Q -0.58,-2.05 0.71,-2.68 2.02,-3.32 3.16,-3.52 4.30,-3.71 5.74,-3.45 7.18,-3.19 8.16,-2.32 9.13,-1.45 9.48,-0.06 9.84,1.32 9.24,3.25 8.64,5.18 7.67,6.58 6.70,7.97 5.97,9.03 5.24,10.09 4.70,11.57 4.16,13.06 5.86,14.06 7.55,15.07 7.76,15.11 7.97,15.15 8.15,15.26 8.34,15.37 8.48,15.53 8.62,15.68 8.70,15.88 8.78,16.08 8.80,16.29 8.81,16.50 8.76,16.71 8.71,16.91 8.59,17.09 8.48,17.27 8.31,17.40 8.14,17.53 7.95,17.60 7.75,17.68 7.53,17.68 7.32,17.68 7.12,17.62 6.91,17.56 6.74,17.43 6.57,17.31 6.45,17.13 6.33,16.96 6.27,16.76 6.20,16.55 6.21,16.34 6.22,16.13 6.29,15.93 6.37,15.73 6.50,15.56 6.64,15.40 6.82,15.29 7.00,15.17 7.20,15.12 7.41,15.07 7.62,15.09 7.83,15.11 8.03,15.20 8.22,15.28 8.38,15.43 8.54,15.57 8.64,15.75 8.74,15.94 8.78,16.15 8.82,16.36 8.79,16.57 8.76,16.78 8.66,16.97 8.57,17.16 8.42,17.31 8.27,17.46 8.07,17.55 7.88,17.64 7.67,17.67 7.46,17.70 7.46,17.70 7.46,17.70 5.74,18.22 4.02,18.74 2.94,18.62 1.85,18.50 0.81,17.99 -0.21,17.49 -0.82,16.36 -1.42,15.22 -1.10,13.50 -0.79,11.77 -0.48,10.70 -0.17,9.63 0.42,8.42 1.03,7.21 1.78,6.11 2.52,5.01 2.99,3.38 3.47,1.75 2.02,1.90 0.58,2.05 0.33,2.09 0.07,2.13 -0.17,2.11 -0.43,2.09 -0.67,2.00 -0.92,1.92 -1.14,1.78 -1.35,1.65 -1.53,1.46 -1.71,1.27 -1.84,1.05 -1.96,0.83 -2.03,0.58 -2.11,0.33 -2.11,0.07 -2.12,-0.17 -2.07,-0.43 -2.02,-0.68 -1.91,-0.91 -1.80,-1.14 -1.63,-1.34 -1.47,-1.54 -1.26,-1.70 -1.06,-1.85 -0.82,-1.95 -0.58,-2.05 -0.58,-2.05 L -0.58,-2.05 Z">
    </path>
  </g>
  <g transform="translate(38.68082351894532 162.96420975347542) rotate(0 0.00004999999998744897 0.00004999999998744897)"
    stroke="none">
    <path fill="#1e1e1e"
      d="M 2.12,-2.12 Q 2.12,-2.12 2.40,-1.73 2.69,-1.33 2.83,-0.87 2.97,-0.40 2.96,0.08 2.95,0.56 2.78,1.02 2.61,1.47 2.31,1.85 2.00,2.23 1.59,2.49 1.18,2.76 0.71,2.87 0.24,2.99 -0.24,2.95 -0.72,2.91 -1.17,2.72 -1.61,2.53 -1.98,2.20 -2.34,1.88 -2.58,1.45 -2.82,1.03 -2.91,0.55 -3.00,0.08 -2.93,-0.40 -2.87,-0.88 -2.65,-1.31 -2.44,-1.75 -2.09,-2.09 -1.75,-2.44 -1.31,-2.65 -0.88,-2.87 -0.39,-2.93 0.08,-3.00 0.55,-2.91 1.03,-2.82 1.46,-2.58 1.88,-2.34 2.20,-1.97 2.53,-1.61 2.72,-1.17 2.91,-0.72 2.95,-0.23 2.99,0.24 2.87,0.71 2.76,1.18 2.49,1.59 2.23,2.00 1.85,2.31 1.47,2.61 1.02,2.78 0.56,2.95 0.07,2.96 -0.40,2.97 -0.87,2.83 -1.33,2.69 -1.73,2.40 -2.12,2.12 -2.12,2.12 -2.12,2.12 -2.34,1.83 -2.57,1.55 -2.72,1.22 -2.86,0.89 -2.93,0.53 -2.99,0.18 -2.97,-0.18 -2.95,-0.54 -2.84,-0.88 -2.74,-1.23 -2.55,-1.54 -2.36,-1.85 -2.10,-2.10 -1.85,-2.36 -1.54,-2.55 -1.23,-2.74 -0.88,-2.84 -0.54,-2.95 -0.18,-2.97 0.18,-2.99 0.53,-2.93 0.89,-2.86 1.22,-2.72 1.55,-2.57 1.83,-2.34 2.12,-2.12 2.12,-2.12 L 2.12,-2.12 Z">
    </path>
  </g>
  <g transform="translate(36.632174660697615 169.7929698152284) rotate(0 0.00004999999998744897 0.00004999999998744897)"
    stroke="none">
    <path fill="#1e1e1e"
      d="M 2.12,-2.12 Q 2.12,-2.12 2.40,-1.73 2.69,-1.33 2.83,-0.87 2.97,-0.40 2.96,0.08 2.95,0.56 2.78,1.02 2.61,1.47 2.31,1.85 2.00,2.23 1.59,2.49 1.18,2.76 0.71,2.87 0.24,2.99 -0.24,2.95 -0.72,2.91 -1.17,2.72 -1.61,2.53 -1.98,2.20 -2.34,1.88 -2.58,1.45 -2.82,1.03 -2.91,0.55 -3.00,0.08 -2.93,-0.40 -2.87,-0.88 -2.65,-1.31 -2.44,-1.75 -2.09,-2.09 -1.75,-2.44 -1.31,-2.65 -0.88,-2.87 -0.39,-2.93 0.08,-3.00 0.55,-2.91 1.03,-2.82 1.46,-2.58 1.88,-2.34 2.20,-1.97 2.53,-1.61 2.72,-1.17 2.91,-0.72 2.95,-0.23 2.99,0.24 2.87,0.71 2.76,1.18 2.49,1.59 2.23,2.00 1.85,2.31 1.47,2.61 1.02,2.78 0.56,2.95 0.07,2.96 -0.40,2.97 -0.87,2.83 -1.33,2.69 -1.73,2.40 -2.12,2.12 -2.12,2.12 -2.12,2.12 -2.34,1.83 -2.57,1.55 -2.72,1.22 -2.86,0.89 -2.93,0.53 -2.99,0.18 -2.97,-0.18 -2.95,-0.54 -2.84,-0.88 -2.74,-1.23 -2.55,-1.54 -2.36,-1.85 -2.10,-2.10 -1.85,-2.36 -1.54,-2.55 -1.23,-2.74 -0.88,-2.84 -0.54,-2.95 -0.18,-2.97 0.18,-2.99 0.53,-2.93 0.89,-2.86 1.22,-2.72 1.55,-2.57 1.83,-2.34 2.12,-2.12 2.12,-2.12 L 2.12,-2.12 Z">
    </path>
  </g>
  <g transform="translate(51.65545200648455 157.50120691400355) rotate(0 -1.7071769906119698 6.828760061752973)"
    stroke="none">
    <path fill="#1e1e1e"
      d="M 0.85,1.36 Q 0.85,1.36 -0.49,2.64 -1.84,3.91 -2.53,5.67 -3.21,7.43 -2.23,8.97 -1.25,10.50 -0.84,9.21 -0.43,7.91 -0.73,6.56 -1.03,5.21 -1.00,3.04 -0.98,0.87 -1.07,0.74 -1.16,0.60 -1.21,0.46 -1.27,0.31 -1.29,0.15 -1.31,-0.00 -1.29,-0.15 -1.27,-0.31 -1.21,-0.46 -1.16,-0.61 -1.07,-0.74 -0.98,-0.87 -0.86,-0.97 -0.74,-1.08 -0.60,-1.15 -0.46,-1.22 -0.31,-1.26 -0.15,-1.30 0.00,-1.30 0.15,-1.30 0.31,-1.26 0.46,-1.22 0.60,-1.15 0.74,-1.08 0.86,-0.97 0.98,-0.87 0.24,-1.04 -0.49,-1.21 -0.29,-1.26 -0.08,-1.31 0.12,-1.28 0.33,-1.26 0.53,-1.18 0.72,-1.09 0.88,-0.95 1.03,-0.80 1.13,-0.61 1.24,-0.43 1.27,-0.22 1.31,-0.01 1.28,0.19 1.24,0.40 1.15,0.59 1.05,0.78 0.90,0.93 0.74,1.07 0.55,1.17 0.36,1.26 0.15,1.28 -0.05,1.31 -0.26,1.26 -0.47,1.22 -0.65,1.11 -0.83,1.00 -0.97,0.84 -1.11,0.68 -1.19,0.49 -1.27,0.29 -1.29,0.08 -1.30,-0.12 -1.25,-0.33 -1.19,-0.53 -1.08,-0.71 -0.96,-0.89 -0.79,-1.02 -0.62,-1.15 -0.42,-1.22 -0.22,-1.29 -0.01,-1.29 0.19,-1.29 0.40,-1.23 0.60,-1.16 0.77,-1.03 0.94,-0.91 1.06,-0.73 1.18,-0.56 1.24,-0.35 1.30,-0.15 1.29,0.05 1.28,0.26 1.20,0.46 1.13,0.66 0.99,0.82 0.86,0.99 -0.06,0.93 -0.98,0.87 -1.07,0.74 -1.16,0.61 -1.21,0.46 -1.27,0.31 -1.29,0.15 -1.31,-0.00 -1.29,-0.15 -1.27,-0.31 -1.21,-0.46 -1.16,-0.61 -1.07,-0.74 -0.98,-0.87 -0.86,-0.97 -0.74,-1.08 -0.60,-1.15 -0.46,-1.22 -0.31,-1.26 -0.15,-1.30 0.00,-1.30 0.15,-1.30 0.31,-1.26 0.46,-1.22 0.60,-1.15 0.74,-1.08 0.86,-0.97 0.98,-0.87 1.20,0.13 1.42,1.13 2.48,2.28 3.53,3.43 4.04,4.94 4.54,6.45 4.48,8.05 4.42,9.64 3.52,11.49 2.62,13.34 0.71,14.28 -1.20,15.23 -3.16,14.47 -5.13,13.71 -6.13,12.24 -7.14,10.76 -7.56,8.62 -7.99,6.48 -7.43,4.73 -6.86,2.99 -5.65,1.50 -4.43,0.01 -2.64,-0.67 -0.85,-1.36 -0.67,-1.45 -0.50,-1.53 -0.31,-1.57 -0.12,-1.60 0.07,-1.60 0.26,-1.59 0.45,-1.53 0.64,-1.48 0.80,-1.38 0.97,-1.28 1.11,-1.14 1.25,-1.01 1.35,-0.84 1.46,-0.68 1.52,-0.49 1.58,-0.31 1.59,-0.12 1.61,0.07 1.58,0.26 1.54,0.45 1.47,0.63 1.39,0.81 1.27,0.96 1.15,1.12 1.00,1.24 0.85,1.36 0.85,1.36 L 0.85,1.36 Z">
    </path>
  </g>
  <g transform="translate(60.53283487683302 156.81834132768915) rotate(0 2.390081651404955 4.780124228331374)"
    stroke="none">
    <path fill="#1e1e1e"
      d="M 1.54,0.88 Q 1.54,0.88 1.24,2.52 0.93,4.17 0.83,5.31 0.73,6.45 1.78,6.61 2.83,6.77 3.75,5.64 4.68,4.50 4.25,3.20 3.82,1.90 1.79,1.59 -0.23,1.29 -0.43,1.22 -0.63,1.15 -0.80,1.01 -0.96,0.88 -1.08,0.71 -1.20,0.53 -1.25,0.32 -1.30,0.12 -1.29,-0.09 -1.27,-0.30 -1.19,-0.49 -1.11,-0.69 -0.97,-0.85 -0.83,-1.01 -0.65,-1.12 -0.46,-1.22 -0.25,-1.26 -0.05,-1.31 0.16,-1.28 0.37,-1.25 0.56,-1.16 0.75,-1.07 0.90,-0.92 1.05,-0.77 1.15,-0.58 1.25,-0.39 1.28,-0.18 1.31,0.02 1.27,0.23 1.23,0.43 1.13,0.62 1.03,0.81 0.87,0.95 0.71,1.09 0.52,1.18 0.33,1.27 0.11,1.29 -0.09,1.31 -0.29,1.26 -0.50,1.21 -0.68,1.09 -0.86,0.98 -1.00,0.82 -1.13,0.65 -1.21,0.46 -1.28,0.26 -1.29,0.04 -1.30,-0.16 -1.24,-0.36 -1.18,-0.57 -1.06,-0.74 -0.93,-0.91 -0.76,-1.04 -0.59,-1.17 -0.39,-1.23 -0.19,-1.29 0.02,-1.29 0.23,-1.29 0.23,-1.29 0.23,-1.29 2.93,-0.74 5.64,-0.19 7.11,1.06 8.58,2.32 8.96,3.95 9.34,5.58 8.77,7.28 8.20,8.99 6.99,10.08 5.78,11.17 4.32,11.70 2.86,12.23 0.86,12.02 -1.13,11.81 -2.44,10.79 -3.75,9.76 -4.37,8.36 -4.98,6.96 -4.98,5.40 -4.98,3.84 -4.53,2.58 -4.07,1.32 -2.81,0.22 -1.54,-0.88 -1.41,-1.05 -1.29,-1.22 -1.12,-1.36 -0.95,-1.50 -0.76,-1.59 -0.57,-1.68 -0.36,-1.73 -0.15,-1.77 0.06,-1.76 0.27,-1.76 0.48,-1.70 0.69,-1.64 0.87,-1.53 1.06,-1.42 1.22,-1.28 1.37,-1.13 1.49,-0.95 1.60,-0.77 1.67,-0.56 1.74,-0.36 1.76,-0.15 1.78,0.06 1.74,0.27 1.71,0.48 1.63,0.68 1.54,0.88 1.54,0.88 L 1.54,0.88 Z">
    </path>
  </g>
  <g transform="translate(90.57938956840712 157.50118086435123) rotate(0 0.6828655863143354 5.463015864298086)"
    stroke="none">
    <path fill="#1e1e1e"
      d="M 2.03,0 Q 2.03,0 2.47,2.15 2.92,4.31 3.06,5.85 3.21,7.39 2.92,8.96 2.62,10.54 2.65,10.75 2.67,10.96 2.63,11.17 2.59,11.38 2.49,11.56 2.38,11.75 2.22,11.89 2.06,12.03 1.87,12.11 1.67,12.20 1.46,12.21 1.25,12.23 1.04,12.18 0.84,12.13 0.66,12.01 0.48,11.90 0.35,11.73 0.22,11.56 0.14,11.36 0.07,11.16 0.07,10.95 0.06,10.74 0.12,10.54 0.19,10.33 0.31,10.16 0.43,9.99 0.61,9.87 0.78,9.74 0.98,9.68 1.19,9.62 1.40,9.63 1.61,9.63 1.81,9.71 2.01,9.78 2.18,9.91 2.34,10.05 2.45,10.23 2.57,10.41 2.62,10.61 2.67,10.82 2.65,11.03 2.63,11.24 2.55,11.44 2.47,11.63 2.32,11.79 2.18,11.95 2.00,12.05 1.81,12.16 1.60,12.19 1.39,12.23 1.18,12.20 0.97,12.18 0.78,12.08 0.59,11.99 0.44,11.83 0.29,11.68 0.20,11.49 0.10,11.30 0.10,11.30 0.10,11.30 -1.16,9.68 -2.43,8.05 -2.67,6.19 -2.92,4.32 -2.47,2.16 -2.03,0 -2.00,-0.24 -1.97,-0.48 -1.88,-0.71 -1.79,-0.94 -1.65,-1.14 -1.52,-1.34 -1.33,-1.50 -1.15,-1.67 -0.93,-1.78 -0.72,-1.89 -0.48,-1.95 -0.24,-2.01 0.00,-2.01 0.24,-2.01 0.48,-1.95 0.72,-1.89 0.93,-1.78 1.15,-1.67 1.33,-1.50 1.52,-1.34 1.65,-1.14 1.79,-0.94 1.88,-0.71 1.97,-0.48 2.00,-0.24 2.03,0.00 2.03,0.00 L 2.03,0 Z">
    </path>
  </g>
  <g transform="translate(96.04239240787899 156.13544969172244) rotate(0 4.0972586420170956 6.1458684257862615)"
    stroke="none">
    <path fill="#1e1e1e"
      d="M -0.17,-1.38 Q -0.17,-1.38 1.35,-2.02 2.88,-2.66 4.13,-2.40 5.38,-2.14 6.26,-1.37 7.13,-0.60 7.28,1.43 7.42,3.47 6.35,4.96 5.29,6.44 4.23,6.93 3.17,7.42 2.89,7.53 2.62,7.64 2.33,7.68 2.03,7.72 1.74,7.70 1.45,7.67 1.17,7.57 0.89,7.47 0.64,7.31 0.40,7.15 0.20,6.93 0.00,6.71 -0.14,6.45 -0.28,6.20 -0.36,5.91 -0.43,5.63 -0.44,5.33 -0.45,5.04 -0.38,4.75 -0.32,4.46 -0.19,4.19 -0.06,3.93 0.12,3.70 0.31,3.48 0.55,3.31 0.79,3.13 2.32,3.56 3.84,3.99 5.82,4.71 7.80,5.42 8.56,6.26 9.31,7.09 9.60,9.48 9.89,11.87 8.91,13.00 7.94,14.13 6.90,14.56 5.86,14.99 3.43,14.27 1.01,13.55 0.82,13.46 0.63,13.38 0.47,13.23 0.32,13.08 0.22,12.90 0.12,12.71 0.08,12.50 0.05,12.29 0.08,12.08 0.12,11.87 0.21,11.68 0.31,11.49 0.47,11.35 0.62,11.20 0.81,11.11 1.01,11.02 1.22,11.00 1.43,10.98 1.64,11.02 1.84,11.07 2.03,11.17 2.21,11.28 2.35,11.45 2.48,11.61 2.56,11.80 2.64,12.00 2.65,12.21 2.67,12.43 2.61,12.63 2.55,12.84 2.44,13.01 2.32,13.19 2.15,13.32 1.98,13.45 1.78,13.51 1.58,13.58 1.36,13.58 1.15,13.58 0.95,13.52 0.75,13.45 0.58,13.32 0.41,13.19 0.29,13.02 0.17,12.84 0.11,12.64 0.06,12.43 0.07,12.22 0.08,12.01 0.16,11.81 0.23,11.61 0.37,11.45 0.51,11.29 0.69,11.18 0.87,11.07 1.08,11.02 1.29,10.98 1.50,11.00 1.71,11.02 1.71,11.02 1.71,11.02 3.35,10.23 4.99,9.43 3.67,8.81 2.35,8.18 1.27,7.47 0.19,6.77 1.68,7.09 3.17,7.42 2.89,7.53 2.62,7.64 2.33,7.68 2.03,7.72 1.74,7.70 1.45,7.67 1.17,7.57 0.89,7.47 0.64,7.31 0.40,7.15 0.20,6.93 0.00,6.71 -0.14,6.45 -0.28,6.20 -0.36,5.91 -0.43,5.63 -0.44,5.33 -0.45,5.04 -0.38,4.75 -0.32,4.46 -0.19,4.19 -0.06,3.93 0.12,3.71 0.31,3.48 0.55,3.31 0.79,3.13 2.09,2.50 3.39,1.87 1.78,1.63 0.17,1.38 0.00,1.38 -0.16,1.38 -0.32,1.34 -0.49,1.30 -0.63,1.22 -0.78,1.15 -0.91,1.03 -1.04,0.92 -1.13,0.79 -1.23,0.65 -1.29,0.49 -1.35,0.33 -1.37,0.17 -1.39,0.00 -1.37,-0.16 -1.35,-0.32 -1.29,-0.48 -1.23,-0.64 -1.14,-0.78 -1.04,-0.92 -0.92,-1.03 -0.79,-1.14 -0.64,-1.22 -0.49,-1.30 -0.33,-1.34 -0.17,-1.38 -0.17,-1.38 L -0.17,-1.38 Z">
    </path>
  </g>
  <g transform="translate(111.06566975366616 163.6470753397898) rotate(0 0.00004999999998744897 0.00004999999998744897)"
    stroke="none">
    <path fill="#1e1e1e"
      d="M 2.12,-2.12 Q 2.12,-2.12 2.40,-1.73 2.69,-1.33 2.83,-0.87 2.97,-0.40 2.96,0.08 2.95,0.56 2.78,1.02 2.61,1.47 2.31,1.85 2.00,2.23 1.59,2.49 1.18,2.76 0.71,2.87 0.24,2.99 -0.24,2.95 -0.72,2.91 -1.17,2.72 -1.61,2.53 -1.98,2.20 -2.34,1.88 -2.58,1.45 -2.82,1.03 -2.91,0.55 -3.00,0.08 -2.93,-0.40 -2.87,-0.88 -2.65,-1.31 -2.44,-1.75 -2.09,-2.09 -1.75,-2.44 -1.31,-2.65 -0.88,-2.87 -0.39,-2.93 0.08,-3.00 0.55,-2.91 1.03,-2.82 1.46,-2.58 1.88,-2.34 2.20,-1.97 2.53,-1.61 2.72,-1.17 2.91,-0.72 2.95,-0.23 2.99,0.24 2.87,0.71 2.76,1.18 2.49,1.59 2.23,2.00 1.85,2.31 1.47,2.61 1.02,2.78 0.56,2.95 0.07,2.96 -0.40,2.97 -0.87,2.83 -1.33,2.69 -1.73,2.40 -2.12,2.12 -2.12,2.12 -2.12,2.12 -2.34,1.83 -2.57,1.55 -2.72,1.22 -2.86,0.89 -2.93,0.53 -2.99,0.18 -2.97,-0.18 -2.95,-0.54 -2.84,-0.88 -2.74,-1.23 -2.55,-1.54 -2.36,-1.85 -2.10,-2.10 -1.85,-2.36 -1.54,-2.55 -1.23,-2.74 -0.88,-2.84 -0.54,-2.95 -0.18,-2.97 0.18,-2.99 0.53,-2.93 0.89,-2.86 1.22,-2.72 1.55,-2.57 1.83,-2.34 2.12,-2.12 2.12,-2.12 L 2.12,-2.12 Z">
    </path>
  </g>
  <g transform="translate(109.01702089541834 169.7929698152284) rotate(0 0.00004999999998744897 0.00004999999998744897)"
    stroke="none">
    <path fill="#1e1e1e"
      d="M 2.12,-2.12 Q 2.12,-2.12 2.40,-1.73 2.69,-1.33 2.83,-0.87 2.97,-0.40 2.96,0.08 2.95,0.56 2.78,1.02 2.61,1.47 2.31,1.85 2.00,2.23 1.59,2.49 1.18,2.76 0.71,2.87 0.24,2.99 -0.24,2.95 -0.72,2.91 -1.17,2.72 -1.61,2.53 -1.98,2.20 -2.34,1.88 -2.58,1.45 -2.82,1.03 -2.91,0.55 -3.00,0.08 -2.93,-0.40 -2.87,-0.88 -2.65,-1.31 -2.44,-1.75 -2.09,-2.09 -1.75,-2.44 -1.31,-2.65 -0.88,-2.87 -0.39,-2.93 0.08,-3.00 0.55,-2.91 1.03,-2.82 1.46,-2.58 1.88,-2.34 2.20,-1.97 2.53,-1.61 2.72,-1.17 2.91,-0.72 2.95,-0.23 2.99,0.24 2.87,0.71 2.76,1.18 2.49,1.59 2.23,2.00 1.85,2.31 1.47,2.61 1.02,2.78 0.56,2.95 0.07,2.96 -0.40,2.97 -0.87,2.83 -1.33,2.69 -1.73,2.40 -2.12,2.12 -2.12,2.12 -2.12,2.12 -2.34,1.83 -2.57,1.55 -2.72,1.22 -2.86,0.89 -2.93,0.53 -2.99,0.18 -2.97,-0.18 -2.95,-0.54 -2.84,-0.88 -2.74,-1.23 -2.55,-1.54 -2.36,-1.85 -2.10,-2.10 -1.85,-2.36 -1.54,-2.55 -1.23,-2.74 -0.88,-2.84 -0.54,-2.95 -0.18,-2.97 0.18,-2.99 0.53,-2.93 0.89,-2.86 1.22,-2.72 1.55,-2.57 1.83,-2.34 2.12,-2.12 2.12,-2.12 L 2.12,-2.12 Z">
    </path>
  </g>
  <g transform="translate(122.67456706857672 158.18407250031782) rotate(0 0.34143279315713926 5.121570046314787)"
    stroke="none">
    <path fill="#1e1e1e"
      d="M 0.94,1.12 Q 0.94,1.12 0.08,2.48 -0.77,3.84 -1.67,5.04 -2.57,6.24 -3.04,7.64 -3.50,9.04 -2.03,9.09 -0.56,9.15 0.57,9.09 1.71,9.04 2.89,7.91 4.06,6.79 4.01,5.23 3.96,3.67 3.25,2.73 2.54,1.79 1.42,1.53 0.30,1.27 0.09,1.29 -0.12,1.30 -0.32,1.25 -0.53,1.20 -0.71,1.08 -0.88,0.96 -1.01,0.80 -1.15,0.63 -1.22,0.43 -1.29,0.23 -1.29,0.02 -1.29,-0.19 -1.23,-0.39 -1.16,-0.59 -1.04,-0.76 -0.91,-0.93 -0.74,-1.06 -0.57,-1.18 -0.36,-1.24 -0.16,-1.30 0.04,-1.29 0.26,-1.28 0.46,-1.21 0.65,-1.13 0.82,-1.00 0.98,-0.86 1.09,-0.68 1.21,-0.50 1.26,-0.29 1.31,-0.09 1.29,0.11 1.27,0.33 1.18,0.52 1.09,0.71 0.95,0.87 0.81,1.03 0.62,1.13 0.43,1.23 0.22,1.27 0.02,1.31 -0.18,1.28 -0.39,1.25 -0.58,1.15 -0.77,1.05 -0.92,0.90 -1.07,0.75 -1.16,0.56 -1.25,0.37 -1.28,0.16 -1.31,-0.05 -1.26,-0.25 -1.22,-0.46 -1.12,-0.65 -1.01,-0.83 -0.85,-0.97 -0.69,-1.11 -0.49,-1.19 -0.30,-1.27 -0.30,-1.27 -0.30,-1.27 2.83,-1.13 5.96,-0.99 6.69,-0.08 7.42,0.81 7.94,2.04 8.47,3.27 8.46,4.60 8.45,5.92 7.81,7.66 7.18,9.40 6.14,10.47 5.11,11.53 3.70,12.34 2.28,13.15 0.59,13.33 -1.09,13.50 -3.02,13.26 -4.95,13.01 -6.11,12.18 -7.27,11.35 -7.73,10.07 -8.20,8.79 -7.97,7.51 -7.75,6.23 -7.12,4.75 -6.49,3.27 -5.21,1.67 -3.93,0.08 -2.43,-0.52 -0.94,-1.12 -0.79,-1.22 -0.64,-1.32 -0.47,-1.37 -0.30,-1.43 -0.13,-1.45 0.04,-1.46 0.21,-1.44 0.39,-1.41 0.55,-1.34 0.72,-1.27 0.86,-1.17 1.00,-1.06 1.11,-0.93 1.23,-0.79 1.31,-0.63 1.38,-0.47 1.42,-0.30 1.46,-0.13 1.45,0.04 1.45,0.22 1.40,0.39 1.35,0.56 1.26,0.71 1.18,0.87 1.06,0.99 0.94,1.12 0.94,1.12 L 0.94,1.12 Z">
    </path>
  </g>
  <g transform="translate(134.96630392014924 157.50118086435123) rotate(0 -0.6828395366620157 4.780137253157477)"
    stroke="none">
    <path fill="#1e1e1e"
      d="M 1.01,1.13 Q 1.01,1.13 -0.53,2.92 -2.09,4.71 -2.38,6.06 -2.67,7.41 -0.92,7.96 0.82,8.51 1.42,7.39 2.03,6.28 1.58,4.65 1.14,3.02 0.61,2.16 0.09,1.31 -0.11,1.29 -0.33,1.27 -0.52,1.18 -0.71,1.09 -0.87,0.95 -1.03,0.81 -1.13,0.62 -1.23,0.43 -1.27,0.22 -1.31,0.02 -1.28,-0.18 -1.25,-0.39 -1.15,-0.58 -1.05,-0.77 -0.90,-0.92 -0.75,-1.07 -0.56,-1.16 -0.37,-1.25 -0.16,-1.28 0.05,-1.31 0.25,-1.26 0.46,-1.22 0.65,-1.12 0.83,-1.01 0.97,-0.85 1.11,-0.69 1.19,-0.49 1.27,-0.30 1.29,-0.09 1.30,0.12 1.25,0.32 1.20,0.53 1.08,0.71 0.96,0.88 0.80,1.01 0.63,1.15 0.43,1.22 0.23,1.29 0.02,1.29 -0.19,1.29 -0.39,1.23 -0.59,1.16 -0.76,1.04 -0.93,0.91 -1.06,0.74 -1.18,0.56 -1.24,0.36 -1.30,0.16 -1.29,-0.05 -1.28,-0.26 -1.21,-0.46 -1.13,-0.65 -1.00,-0.82 -0.86,-0.98 -0.68,-1.10 -0.50,-1.21 -0.29,-1.26 -0.09,-1.31 -0.09,-1.31 -0.09,-1.31 2.41,0.26 4.91,1.83 5.79,4.41 6.67,7.00 6.11,8.84 5.55,10.68 4.28,11.69 3.01,12.70 1.28,12.86 -0.44,13.03 -2.65,12.18 -4.86,11.33 -5.98,9.86 -7.10,8.38 -7.06,6.55 -7.03,4.72 -6.00,3.14 -4.97,1.56 -2.99,0.21 -1.01,-1.13 -0.86,-1.24 -0.71,-1.34 -0.53,-1.41 -0.36,-1.47 -0.18,-1.50 -0.00,-1.52 0.17,-1.50 0.36,-1.47 0.53,-1.41 0.70,-1.35 0.85,-1.24 1.00,-1.14 1.13,-1.00 1.25,-0.86 1.33,-0.70 1.42,-0.54 1.46,-0.36 1.51,-0.18 1.51,-0.00 1.51,0.18 1.46,0.35 1.42,0.53 1.34,0.70 1.25,0.86 1.13,1.00 1.01,1.13 1.01,1.13 L 1.01,1.13 Z">
    </path>
  </g>
</svg>