<svg version="1.1" xmlns="http://www.w3.org/2000/svg" viewBox="0 0 234.68338479452655 190.02141673356687"
  width="234.68338479452655" height="190.02141673356687">
  <g transform="translate(59.77783203125 39.11162138347129) rotate(0 -12.888895670572765 14.222259521484375)"
    stroke="none">
    <path fill="#2f9e44"
      d="M 1.51,1.32 Q 1.51,1.32 0.08,3.68 -1.33,6.04 -3.09,8.16 -4.84,10.27 -6.46,13.26 -8.08,16.25 -9.65,18.72 -11.22,21.19 -12.34,23.16 -13.46,25.13 -14.26,26.34 -15.06,27.55 -17.03,28.75 -19.00,29.95 -20.28,29.36 -21.55,28.77 -22.37,28.00 -23.19,27.22 -23.95,26.19 -24.71,25.15 -25.71,22.81 -26.72,20.46 -26.84,20.29 -26.96,20.11 -27.02,19.91 -27.08,19.70 -27.07,19.49 -27.06,19.28 -26.98,19.08 -26.90,18.88 -26.77,18.72 -26.63,18.56 -26.45,18.44 -26.27,18.33 -26.06,18.29 -25.85,18.24 -25.64,18.26 -25.43,18.28 -25.24,18.37 -25.04,18.46 -24.89,18.60 -24.73,18.75 -24.63,18.94 -24.53,19.12 -24.50,19.33 -24.46,19.54 -24.49,19.75 -24.53,19.96 -24.62,20.15 -24.72,20.34 -24.87,20.49 -25.03,20.63 -25.22,20.72 -25.41,20.81 -25.62,20.84 -25.83,20.86 -26.04,20.82 -26.25,20.77 -26.43,20.67 -26.62,20.56 -26.75,20.40 -26.89,20.24 -26.97,20.04 -27.05,19.84 -27.07,19.63 -27.08,19.42 -27.02,19.21 -26.97,19.01 -26.85,18.83 -26.73,18.65 -26.56,18.52 -26.40,18.39 -26.20,18.33 -25.99,18.26 -25.78,18.25 -25.57,18.25 -25.37,18.32 -25.17,18.39 -25.00,18.51 -24.83,18.64 -24.83,18.64 -24.83,18.64 -22.89,19.47 -20.95,20.30 -19.99,21.60 -19.02,22.89 -18.47,23.94 -17.92,24.99 -18.99,24.61 -20.05,24.24 -19.36,23.20 -18.67,22.17 -17.47,20.07 -16.27,17.97 -14.79,15.66 -13.31,13.35 -11.37,9.92 -9.43,6.48 -7.62,4.31 -5.81,2.13 -3.66,0.40 -1.51,-1.32 -1.33,-1.49 -1.15,-1.65 -0.94,-1.76 -0.72,-1.88 -0.49,-1.94 -0.25,-2.00 -0.01,-2.00 0.23,-2.00 0.46,-1.94 0.70,-1.89 0.91,-1.77 1.13,-1.66 1.31,-1.50 1.50,-1.34 1.64,-1.14 1.78,-0.94 1.86,-0.72 1.95,-0.49 1.98,-0.25 2.01,-0.01 1.98,0.22 1.96,0.47 1.87,0.69 1.79,0.92 1.65,1.12 1.51,1.32 1.51,1.32 L 1.51,1.32 Z">
    </path>
  </g>
  <g transform="translate(42.88892957899316 46.22272571289841) rotate(0 -6.222262912326414 20.000016954210082)"
    stroke="none">
    <path fill="#2f9e44"
      d="M -0.83,1.67 Q -0.83,1.67 -3.57,0.78 -6.31,-0.10 -8.33,-0.48 -10.34,-0.87 -12.02,-0.31 -13.70,0.23 -16.32,1.85 -18.95,3.46 -21.26,5.56 -23.57,7.66 -24.88,10.08 -26.19,12.51 -27.30,15.06 -28.42,17.61 -28.82,20.19 -29.21,22.77 -28.67,26.12 -28.12,29.46 -26.83,32.13 -25.54,34.80 -22.81,36.42 -20.09,38.04 -16.10,39.01 -12.10,39.99 -6.60,39.40 -1.11,38.82 3.08,37.15 7.28,35.48 10.18,33.39 13.07,31.30 14.36,29.19 15.65,27.07 16.25,25.21 16.85,23.35 16.53,21.07 16.21,18.79 15.91,16.67 15.61,14.55 15.59,14.34 15.57,14.13 15.62,13.92 15.67,13.71 15.78,13.53 15.90,13.35 16.06,13.22 16.22,13.08 16.42,13.01 16.62,12.93 16.83,12.92 17.05,12.91 17.25,12.97 17.45,13.03 17.63,13.16 17.80,13.28 17.93,13.45 18.05,13.62 18.12,13.82 18.18,14.02 18.18,14.24 18.18,14.45 18.11,14.65 18.03,14.85 17.90,15.02 17.77,15.18 17.59,15.30 17.42,15.42 17.21,15.47 17.01,15.52 16.79,15.51 16.58,15.50 16.39,15.41 16.19,15.33 16.03,15.19 15.87,15.05 15.76,14.87 15.66,14.68 15.61,14.48 15.57,14.27 15.60,14.06 15.62,13.85 15.72,13.66 15.81,13.46 15.96,13.31 16.11,13.16 16.29,13.06 16.48,12.97 16.69,12.94 16.90,12.90 17.11,12.94 17.32,12.98 17.51,13.08 17.69,13.18 17.84,13.34 17.98,13.50 18.07,13.69 18.15,13.89 18.15,13.88 18.15,13.88 18.94,15.88 19.72,17.87 20.85,21.16 21.98,24.45 21.20,27.27 20.42,30.09 18.46,32.98 16.49,35.87 12.94,38.35 9.38,40.82 4.42,42.68 -0.53,44.53 -6.98,45.01 -13.42,45.49 -18.27,44.16 -23.13,42.84 -26.81,40.24 -30.48,37.65 -32.21,34.02 -33.95,30.39 -34.50,26.12 -35.06,21.86 -34.44,18.57 -33.83,15.27 -32.56,12.41 -31.30,9.55 -29.41,6.46 -27.52,3.36 -24.71,0.90 -21.91,-1.56 -18.50,-3.46 -15.10,-5.37 -12.21,-5.89 -9.33,-6.40 -6.61,-5.70 -3.90,-5.01 -1.53,-3.34 0.83,-1.67 1.02,-1.55 1.21,-1.43 1.37,-1.26 1.52,-1.09 1.63,-0.89 1.74,-0.70 1.80,-0.48 1.85,-0.26 1.86,-0.03 1.86,0.18 1.81,0.41 1.76,0.63 1.66,0.83 1.56,1.03 1.41,1.20 1.27,1.38 1.08,1.51 0.90,1.64 0.69,1.73 0.48,1.81 0.26,1.84 0.03,1.87 -0.18,1.85 -0.41,1.83 -0.62,1.75 -0.84,1.67 -0.84,1.67 L -0.83,1.67 Z">
    </path>
  </g>
  <g transform="translate(204.2389132233459 28.66668701171875) rotate(0 -9.333326551649293 8.888888888888857)"
    stroke="none">
    <path fill="#e04242"
      d="M 1.28,1.28 Q 1.28,1.28 0.42,2.97 -0.44,4.67 -2.82,6.81 -5.21,8.95 -7.27,10.65 -9.32,12.34 -10.54,13.67 -11.76,15.00 -12.87,16.15 -13.98,17.31 -14.96,17.55 -15.94,17.79 -16.06,17.89 -16.18,17.99 -16.33,18.06 -16.47,18.13 -16.62,18.16 -16.78,18.19 -16.94,18.19 -17.10,18.18 -17.25,18.14 -17.40,18.09 -17.54,18.01 -17.67,17.93 -17.79,17.82 -17.90,17.71 -17.99,17.58 -18.07,17.45 -18.12,17.30 -18.17,17.15 -18.18,16.99 -18.20,16.83 -18.17,16.67 -18.15,16.52 -18.08,16.37 -18.02,16.23 -17.93,16.10 -17.83,15.97 -17.46,15.78 -17.09,15.59 -16.88,15.59 -16.66,15.59 -16.46,15.66 -16.26,15.73 -16.09,15.86 -15.92,15.99 -15.81,16.16 -15.69,16.34 -15.63,16.54 -15.58,16.75 -15.59,16.96 -15.60,17.17 -15.68,17.37 -15.76,17.57 -15.90,17.73 -16.04,17.89 -16.22,18.00 -16.41,18.11 -16.61,18.15 -16.82,18.20 -17.03,18.17 -17.24,18.15 -17.44,18.06 -17.63,17.97 -17.78,17.82 -17.93,17.67 -18.03,17.48 -18.13,17.30 -18.16,17.09 -18.20,16.88 -18.16,16.67 -18.13,16.46 -18.03,16.27 -17.92,16.08 -17.77,15.94 -17.61,15.79 -17.42,15.70 -17.23,15.62 -17.02,15.59 -16.80,15.57 -16.60,15.62 -16.39,15.67 -16.21,15.78 -16.03,15.89 -15.89,16.05 -15.75,16.21 -15.68,16.41 -15.60,16.61 -15.59,16.82 -15.58,17.03 -15.64,17.24 -15.70,17.44 -15.82,17.62 -15.94,17.79 -16.11,17.92 -16.28,18.05 -16.11,17.92 -15.94,17.79 -16.06,17.89 -16.18,17.99 -16.33,18.06 -16.47,18.13 -16.62,18.16 -16.78,18.19 -16.94,18.19 -17.10,18.18 -17.25,18.14 -17.40,18.09 -17.54,18.01 -17.67,17.93 -17.79,17.82 -17.90,17.71 -17.99,17.58 -18.07,17.45 -18.12,17.30 -18.17,17.15 -18.18,16.99 -18.20,16.83 -18.17,16.67 -18.15,16.52 -18.08,16.37 -18.02,16.23 -17.93,16.10 -17.83,15.97 -18.09,14.54 -18.34,13.11 -17.26,11.99 -16.19,10.87 -14.68,9.27 -13.16,7.66 -11.19,6.06 -9.22,4.45 -6.94,2.44 -4.67,0.44 -2.97,-0.42 -1.28,-1.28 -1.11,-1.42 -0.94,-1.55 -0.74,-1.64 -0.54,-1.73 -0.32,-1.77 -0.10,-1.81 0.10,-1.80 0.32,-1.79 0.53,-1.72 0.74,-1.66 0.93,-1.54 1.12,-1.43 1.27,-1.27 1.43,-1.12 1.54,-0.93 1.66,-0.74 1.72,-0.53 1.79,-0.32 1.80,-0.10 1.81,0.11 1.77,0.32 1.73,0.54 1.64,0.74 1.55,0.94 1.42,1.11 1.28,1.28 1.28,1.28 L 1.28,1.28 Z">
    </path>
  </g>
  <g transform="translate(198.90559345338056 43.77777099609375) rotate(0 -5.333319769965215 -7.111104329427121)"
    stroke="none">
    <path fill="#e04242"
      d="M -1.11,0.97 Q -1.11,0.97 -3.44,-0.59 -5.76,-2.17 -7.09,-3.87 -8.41,-5.57 -9.41,-6.73 -10.40,-7.89 -11.11,-10.74 -11.81,-13.59 -11.88,-13.79 -11.95,-13.99 -11.96,-14.20 -11.96,-14.41 -11.90,-14.61 -11.83,-14.82 -11.70,-14.99 -11.58,-15.16 -11.40,-15.28 -11.23,-15.40 -11.03,-15.46 -10.82,-15.52 -10.61,-15.51 -10.40,-15.50 -10.20,-15.43 -10.00,-15.35 -9.84,-15.22 -9.67,-15.08 -9.56,-14.90 -9.45,-14.72 -9.40,-14.51 -9.35,-14.31 -9.37,-14.10 -9.39,-13.88 -9.48,-13.69 -9.56,-13.50 -9.71,-13.34 -9.85,-13.18 -10.04,-13.08 -10.22,-12.98 -10.43,-12.94 -10.64,-12.90 -10.85,-12.94 -11.06,-12.97 -11.25,-13.06 -11.44,-13.16 -11.59,-13.31 -11.74,-13.46 -11.83,-13.66 -11.92,-13.85 -11.95,-14.06 -11.97,-14.27 -11.93,-14.48 -11.89,-14.69 -11.78,-14.87 -11.67,-15.05 -11.51,-15.19 -11.35,-15.33 -11.16,-15.41 -10.96,-15.50 -10.75,-15.51 -10.54,-15.52 -10.33,-15.47 -10.13,-15.42 -9.95,-15.30 -9.77,-15.18 -9.64,-15.02 -9.51,-14.85 -9.51,-14.85 -9.51,-14.85 -7.77,-13.25 -6.04,-11.65 -4.93,-10.39 -3.82,-9.14 -2.60,-7.57 -1.38,-6.00 -0.13,-3.49 1.11,-0.97 1.21,-0.83 1.32,-0.68 1.38,-0.51 1.44,-0.34 1.46,-0.16 1.48,0.00 1.46,0.18 1.44,0.36 1.37,0.53 1.31,0.69 1.20,0.84 1.10,0.99 0.97,1.11 0.83,1.22 0.67,1.31 0.51,1.39 0.34,1.43 0.17,1.47 -0.00,1.47 -0.18,1.47 -0.36,1.43 -0.53,1.38 -0.69,1.30 -0.85,1.21 -0.98,1.09 -1.11,0.97 -1.11,0.97 L -1.11,0.97 Z">
    </path>
  </g>
  <g transform="translate(206.90560701674872 15.333387586805543) rotate(0 -14.222242567274293 22.666609022352418)"
    stroke="none">
    <path fill="#e04242"
      d="M -0.68,1.24 Q -0.68,1.24 -3.19,0.35 -5.70,-0.53 -7.45,-0.95 -9.21,-1.38 -10.84,-1.86 -12.47,-2.34 -14.60,-2.21 -16.72,-2.08 -18.80,-1.55 -20.88,-1.03 -23.22,-0.08 -25.55,0.85 -28.40,2.93 -31.25,5.01 -33.46,7.12 -35.67,9.23 -37.55,11.60 -39.43,13.96 -40.36,16.05 -41.28,18.14 -41.92,20.24 -42.56,22.35 -42.81,24.56 -43.06,26.77 -42.21,29.38 -41.37,31.99 -40.27,34.70 -39.17,37.42 -37.81,39.38 -36.44,41.34 -34.06,42.98 -31.69,44.63 -29.30,45.55 -26.91,46.48 -24.52,46.85 -22.13,47.21 -19.35,47.38 -16.57,47.55 -13.60,47.62 -10.63,47.69 -7.87,47.26 -5.11,46.82 -1.79,44.30 1.52,41.78 4.49,38.52 7.47,35.26 9.44,31.98 11.41,28.69 12.44,25.56 13.48,22.42 12.45,19.28 11.43,16.13 9.03,11.94 6.64,7.75 2.91,4.39 -0.80,1.04 -0.94,0.88 -1.09,0.73 -1.17,0.53 -1.26,0.34 -1.28,0.13 -1.31,-0.07 -1.26,-0.28 -1.21,-0.49 -1.10,-0.67 -0.99,-0.85 -0.83,-0.99 -0.66,-1.12 -0.47,-1.20 -0.27,-1.28 -0.06,-1.29 0.15,-1.30 0.35,-1.24 0.55,-1.18 0.73,-1.06 0.90,-0.94 1.03,-0.77 1.16,-0.60 1.23,-0.40 1.29,-0.20 1.29,0.00 1.29,0.22 1.22,0.42 1.15,0.62 1.02,0.79 0.89,0.95 0.72,1.07 0.54,1.19 0.33,1.25 0.13,1.30 -0.07,1.29 -0.29,1.28 -0.48,1.20 -0.68,1.12 -0.84,0.98 -1.00,0.84 -1.11,0.66 -1.22,0.47 -1.26,0.27 -1.31,0.06 -1.28,-0.14 -1.26,-0.35 -1.17,-0.55 -1.08,-0.74 -0.93,-0.89 -0.78,-1.05 -0.59,-1.14 -0.41,-1.24 -0.20,-1.28 0.00,-1.31 0.21,-1.27 0.42,-1.24 0.61,-1.14 0.80,-1.04 0.80,-1.04 0.80,-1.04 5.57,2.14 10.35,5.33 13.44,10.00 16.54,14.67 17.59,19.13 18.65,23.59 17.38,27.54 16.10,31.48 13.84,35.24 11.58,38.99 8.20,42.68 4.82,46.36 0.42,49.36 -3.98,52.35 -7.37,52.87 -10.77,53.38 -13.86,53.29 -16.95,53.19 -20.02,52.96 -23.09,52.74 -26.04,52.17 -28.98,51.61 -31.95,50.35 -34.91,49.09 -37.91,46.79 -40.90,44.48 -42.55,41.98 -44.20,39.47 -45.40,36.48 -46.59,33.49 -47.52,29.88 -48.46,26.28 -48.09,23.49 -47.72,20.71 -46.90,18.28 -46.08,15.85 -44.78,13.28 -43.48,10.71 -41.32,8.12 -39.16,5.54 -36.68,3.21 -34.19,0.89 -30.80,-1.45 -27.42,-3.79 -24.71,-4.83 -22.00,-5.87 -19.42,-6.41 -16.84,-6.95 -14.01,-6.91 -11.18,-6.88 -9.58,-6.39 -7.98,-5.90 -5.74,-5.23 -3.49,-4.57 -1.40,-2.90 0.68,-1.24 0.82,-1.14 0.96,-1.04 1.07,-0.90 1.18,-0.77 1.26,-0.62 1.34,-0.47 1.37,-0.30 1.41,-0.13 1.40,0.03 1.40,0.20 1.36,0.37 1.31,0.53 1.23,0.68 1.14,0.83 1.03,0.96 0.91,1.08 0.77,1.17 0.63,1.27 0.46,1.33 0.30,1.38 0.13,1.40 -0.03,1.42 -0.20,1.39 -0.37,1.37 -0.53,1.30 -0.69,1.24 -0.69,1.24 L -0.68,1.24 Z">
    </path>
  </g>
  <g transform="translate(138.13283954808912 142.68804271012937) rotate(0 5.333319769965328 3.111131456163207)"
    stroke="none">
    <path fill="#eeee00"
      d="M -1.87,0.46 Q -1.87,0.46 -2.34,-0.55 -2.82,-1.57 -2.66,-2.78 -2.51,-3.99 -1.73,-5.21 -0.95,-6.43 0.64,-7.51 2.23,-8.59 4.00,-9.00 5.76,-9.41 7.65,-9.13 9.55,-8.85 10.59,-7.93 11.64,-7.01 12.45,-5.47 13.27,-3.93 13.52,-2.80 13.78,-1.67 13.89,-0.39 14.01,0.88 13.94,2.32 13.87,3.75 12.98,5.09 12.08,6.44 10.79,7.26 9.50,8.08 8.50,8.57 7.50,9.07 6.63,11.21 5.75,13.34 5.72,13.55 5.68,13.76 5.58,13.95 5.48,14.13 5.32,14.28 5.16,14.42 4.97,14.51 4.78,14.60 4.57,14.62 4.35,14.64 4.15,14.59 3.94,14.54 3.76,14.43 3.58,14.32 3.44,14.16 3.31,13.99 3.23,13.80 3.15,13.60 3.14,13.38 3.14,13.17 3.19,12.97 3.25,12.76 3.37,12.59 3.50,12.42 3.67,12.29 3.84,12.16 4.04,12.10 4.24,12.03 4.45,12.03 4.67,12.03 4.87,12.10 5.07,12.17 5.23,12.31 5.40,12.44 5.52,12.61 5.64,12.79 5.69,13.00 5.75,13.20 5.73,13.41 5.72,13.62 5.64,13.82 5.56,14.02 5.42,14.18 5.28,14.34 5.10,14.45 4.91,14.55 4.70,14.60 4.50,14.64 4.29,14.62 4.07,14.59 3.88,14.50 3.69,14.41 3.54,14.26 3.39,14.11 3.29,13.92 3.19,13.73 3.16,13.52 3.13,13.31 3.13,13.31 3.13,13.31 2.69,11.52 2.25,9.73 3.01,8.42 3.76,7.12 4.70,5.96 5.64,4.80 6.77,4.37 7.89,3.93 8.45,2.54 9.01,1.15 8.89,-0.31 8.77,-1.77 7.99,-3.20 7.22,-4.62 5.86,-4.53 4.51,-4.44 3.15,-3.47 1.79,-2.51 1.83,-1.49 1.87,-0.46 1.90,-0.23 1.93,-0.00 1.90,0.22 1.87,0.45 1.79,0.67 1.71,0.89 1.58,1.08 1.45,1.27 1.27,1.43 1.10,1.58 0.89,1.69 0.69,1.80 0.46,1.86 0.23,1.91 0.00,1.91 -0.22,1.92 -0.45,1.86 -0.67,1.81 -0.88,1.70 -1.09,1.59 -1.26,1.44 -1.44,1.28 -1.57,1.09 -1.70,0.90 -1.79,0.68 -1.87,0.46 -1.87,0.46 L -1.87,0.46 Z">
    </path>
  </g>
  <g transform="translate(142.5772839925337 164.02138960683078) rotate(0 0.00004999999998744897 0.00004999999998744897)"
    stroke="none">
    <path fill="#eeee00"
      d="M 2.12,-2.12 Q 2.12,-2.12 2.40,-1.73 2.69,-1.33 2.83,-0.87 2.97,-0.40 2.96,0.08 2.95,0.56 2.78,1.02 2.61,1.47 2.31,1.85 2.00,2.23 1.59,2.49 1.18,2.76 0.71,2.87 0.24,2.99 -0.24,2.95 -0.72,2.91 -1.17,2.72 -1.61,2.53 -1.98,2.20 -2.34,1.88 -2.58,1.45 -2.82,1.03 -2.91,0.55 -3.00,0.08 -2.93,-0.40 -2.87,-0.88 -2.65,-1.31 -2.44,-1.75 -2.09,-2.09 -1.75,-2.44 -1.31,-2.65 -0.88,-2.87 -0.39,-2.93 0.08,-3.00 0.55,-2.91 1.03,-2.82 1.46,-2.58 1.88,-2.34 2.20,-1.97 2.53,-1.61 2.72,-1.17 2.91,-0.72 2.95,-0.23 2.99,0.24 2.87,0.71 2.76,1.18 2.49,1.59 2.23,2.00 1.85,2.31 1.47,2.61 1.02,2.78 0.56,2.95 0.07,2.96 -0.40,2.97 -0.87,2.83 -1.33,2.69 -1.73,2.40 -2.12,2.12 -2.12,2.12 -2.12,2.12 -2.34,1.83 -2.57,1.55 -2.72,1.22 -2.86,0.89 -2.93,0.53 -2.99,0.18 -2.97,-0.18 -2.95,-0.54 -2.84,-0.88 -2.74,-1.23 -2.55,-1.54 -2.36,-1.85 -2.10,-2.10 -1.85,-2.36 -1.54,-2.55 -1.23,-2.74 -0.88,-2.84 -0.54,-2.95 -0.18,-2.97 0.18,-2.99 0.53,-2.93 0.89,-2.86 1.22,-2.72 1.55,-2.57 1.83,-2.34 2.12,-2.12 2.12,-2.12 L 2.12,-2.12 Z">
    </path>
  </g>
  <g transform="translate(162.13281242135304 127.57695872575437) rotate(0 -16.444430881076414 23.555569118923586)"
    stroke="none">
    <path fill="#eeee00"
      d="M -1.02,1.02 Q -1.02,1.02 -2.11,0.58 -3.21,0.14 -4.72,-0.79 -6.24,-1.72 -7.47,-2.20 -8.70,-2.67 -10.38,-2.74 -12.07,-2.81 -13.19,-2.82 -14.32,-2.83 -16.25,-2.84 -18.17,-2.85 -19.71,-2.85 -21.25,-2.85 -23.11,-2.51 -24.96,-2.16 -26.45,-1.57 -27.93,-0.98 -28.93,-0.37 -29.94,0.23 -30.79,0.93 -31.65,1.63 -32.64,2.76 -33.63,3.89 -34.60,4.72 -35.57,5.55 -36.69,7.22 -37.81,8.89 -38.72,10.62 -39.62,12.34 -40.43,14.26 -41.24,16.17 -41.74,18.07 -42.24,19.97 -42.35,22.25 -42.45,24.53 -42.46,25.66 -42.47,26.79 -42.46,28.03 -42.46,29.27 -42.04,30.95 -41.62,32.63 -40.96,33.75 -40.30,34.87 -39.71,35.96 -39.12,37.04 -38.61,38.01 -38.10,38.99 -36.66,40.89 -35.23,42.80 -34.46,43.69 -33.70,44.58 -31.95,45.82 -30.21,47.06 -29.18,47.54 -28.14,48.02 -26.57,48.45 -25.00,48.88 -23.65,49.06 -22.31,49.24 -20.75,49.33 -19.20,49.41 -17.53,49.46 -15.85,49.50 -14.20,49.07 -12.54,48.63 -10.83,47.98 -9.12,47.32 -7.69,46.59 -6.26,45.85 -4.89,45.05 -3.52,44.26 -2.31,43.25 -1.09,42.23 0.38,40.63 1.87,39.02 2.97,37.42 4.06,35.82 5.35,33.85 6.64,31.88 7.36,30.18 8.08,28.48 8.62,26.33 9.16,24.17 9.43,22.10 9.70,20.03 9.21,17.92 8.71,15.81 7.70,13.89 6.70,11.98 5.90,10.33 5.10,8.69 5.02,8.50 4.94,8.30 4.92,8.09 4.91,7.88 4.96,7.67 5.02,7.46 5.13,7.29 5.25,7.11 5.42,6.98 5.58,6.85 5.78,6.77 5.98,6.70 6.20,6.70 6.41,6.70 6.61,6.76 6.81,6.82 6.98,6.95 7.16,7.08 7.28,7.25 7.40,7.42 7.46,7.63 7.52,7.83 7.51,8.04 7.50,8.26 7.43,8.45 7.35,8.65 7.22,8.82 7.08,8.98 6.90,9.09 6.72,9.21 6.52,9.26 6.31,9.31 6.10,9.29 5.89,9.27 5.69,9.18 5.50,9.09 5.34,8.95 5.19,8.81 5.08,8.62 4.98,8.44 4.94,8.23 4.90,8.02 4.93,7.81 4.97,7.60 5.06,7.41 5.16,7.22 5.31,7.07 5.46,6.92 5.65,6.83 5.84,6.74 6.06,6.71 6.27,6.68 6.47,6.72 6.68,6.77 6.87,6.87 7.05,6.98 7.19,7.14 7.33,7.30 7.33,7.30 7.33,7.30 8.46,8.74 9.59,10.17 11.19,12.42 12.78,14.68 13.61,17.56 14.43,20.44 14.20,22.92 13.96,25.39 13.31,27.90 12.66,30.41 11.79,32.48 10.91,34.55 9.66,36.65 8.40,38.74 7.11,40.68 5.82,42.62 4.09,44.52 2.36,46.43 0.82,47.69 -0.70,48.94 -2.20,49.86 -3.69,50.78 -5.39,51.68 -7.09,52.58 -9.14,53.36 -11.18,54.15 -13.56,54.71 -15.93,55.26 -17.72,55.23 -19.52,55.19 -21.32,55.10 -23.11,55.00 -24.84,54.74 -26.57,54.49 -28.61,53.91 -30.66,53.32 -32.12,52.61 -33.59,51.89 -34.79,51.05 -36.00,50.21 -37.08,49.33 -38.17,48.44 -39.12,47.33 -40.07,46.22 -40.84,45.12 -41.62,44.03 -42.49,42.87 -43.36,41.72 -43.84,40.77 -44.32,39.83 -44.86,38.80 -45.40,37.77 -46.19,36.33 -46.99,34.89 -47.59,33.15 -48.18,31.42 -48.18,30.32 -48.17,29.22 -48.14,27.94 -48.11,26.67 -48.07,25.49 -48.02,24.31 -47.94,22.68 -47.86,21.05 -47.36,18.86 -46.85,16.67 -46.58,15.43 -46.31,14.20 -45.78,12.94 -45.26,11.68 -44.27,9.86 -43.29,8.03 -42.72,7.06 -42.16,6.09 -41.46,5.04 -40.76,3.99 -39.20,2.47 -37.64,0.96 -36.18,-0.62 -34.72,-2.21 -33.58,-3.10 -32.43,-4.00 -31.14,-4.74 -29.85,-5.48 -28.85,-5.90 -27.85,-6.32 -25.89,-6.77 -23.93,-7.21 -22.61,-7.51 -21.28,-7.80 -19.72,-7.80 -18.16,-7.80 -16.21,-7.79 -14.26,-7.79 -13.08,-7.77 -11.90,-7.75 -9.88,-7.61 -7.87,-7.47 -6.41,-7.11 -4.94,-6.74 -3.79,-6.05 -2.63,-5.36 -1.24,-4.28 0.14,-3.21 0.58,-2.11 1.02,-1.02 1.13,-0.88 1.24,-0.75 1.31,-0.59 1.38,-0.43 1.41,-0.25 1.44,-0.08 1.43,0.08 1.42,0.26 1.37,0.42 1.32,0.59 1.23,0.74 1.14,0.89 1.01,1.01 0.89,1.14 0.74,1.23 0.59,1.32 0.42,1.37 0.26,1.42 0.08,1.43 -0.08,1.44 -0.25,1.41 -0.43,1.38 -0.59,1.31 -0.75,1.24 -0.88,1.13 -1.02,1.02 -1.02,1.02 L -1.02,1.02 Z">
    </path>
  </g>
</svg>