<svg version="1.1" xmlns="http://www.w3.org/2000/svg" viewBox="0 0 289.85148935251004 229.10512325984996" width="289.85148935251004" height="229.10512325984996">
  <g transform="translate(65.4007055681518 130.0349012008121) rotate(0 2.308387192308601 21.54481015052005)" stroke="none"><path fill="grey" d="M -0.83,-1.25 Q -0.83,-1.25 0.17,-2.65 1.19,-4.05 3.02,-4.63 4.85,-5.22 6.72,-5.84 8.60,-6.45 11.06,-6.78 13.53,-7.11 16.36,-6.27 19.20,-5.43 21.42,-3.99 23.63,-2.55 25.72,1.10 27.80,4.76 28.64,8.23 29.48,11.70 29.37,15.63 29.26,19.57 27.77,23.32 26.27,27.08 24.25,30.44 22.22,33.80 18.49,37.22 14.76,40.65 11.36,42.99 7.97,45.32 4.58,46.83 1.19,48.34 -1.74,49.01 -4.69,49.69 -8.42,49.52 -12.15,49.36 -14.70,48.80 -17.25,48.23 -18.96,47.47 -20.66,46.71 -22.39,44.53 -24.11,42.36 -24.21,42.17 -24.31,41.99 -24.35,41.78 -24.39,41.57 -24.36,41.36 -24.33,41.15 -24.24,40.96 -24.14,40.77 -23.99,40.62 -23.84,40.47 -23.65,40.38 -23.45,40.29 -23.24,40.26 -23.03,40.23 -22.82,40.27 -22.62,40.32 -22.43,40.42 -22.25,40.53 -22.11,40.69 -21.97,40.85 -21.88,41.04 -21.80,41.24 -21.79,41.45 -21.77,41.66 -21.82,41.87 -21.88,42.07 -21.99,42.25 -22.11,42.43 -22.27,42.56 -22.44,42.69 -22.64,42.77 -22.84,42.84 -23.05,42.84 -23.27,42.85 -23.47,42.78 -23.67,42.72 -23.84,42.59 -24.01,42.47 -24.14,42.29 -24.26,42.12 -24.32,41.92 -24.38,41.71 -24.37,41.50 -24.37,41.29 -24.29,41.09 -24.22,40.89 -24.08,40.73 -23.95,40.56 -23.77,40.45 -23.59,40.34 -23.38,40.29 -23.17,40.24 -22.96,40.25 -22.75,40.27 -22.56,40.36 -22.36,40.44 -22.21,40.59 -22.05,40.73 -22.05,40.73 -22.05,40.73 -20.13,41.08 -18.21,41.43 -17.07,42.00 -15.93,42.56 -13.87,43.05 -11.80,43.54 -8.85,43.76 -5.89,43.98 -3.50,43.48 -1.12,42.98 1.78,41.73 4.69,40.48 7.78,38.39 10.87,36.31 14.08,33.51 17.29,30.72 19.10,27.76 20.91,24.79 22.19,22.00 23.47,19.21 23.64,16.07 23.82,12.93 23.24,10.17 22.66,7.40 21.42,4.72 20.17,2.04 18.71,1.05 17.25,0.06 15.60,-0.65 13.95,-1.36 12.11,-1.18 10.27,-0.99 8.26,-0.40 6.25,0.17 5.18,0.34 4.11,0.51 2.47,0.88 0.83,1.25 0.67,1.34 0.51,1.42 0.33,1.46 0.15,1.50 -0.02,1.50 -0.20,1.49 -0.38,1.45 -0.55,1.40 -0.71,1.31 -0.87,1.23 -1.01,1.10 -1.14,0.98 -1.24,0.83 -1.35,0.68 -1.41,0.50 -1.47,0.33 -1.49,0.15 -1.51,-0.02 -1.48,-0.20 -1.46,-0.38 -1.39,-0.55 -1.32,-0.72 -1.22,-0.87 -1.11,-1.02 -0.97,-1.13 -0.83,-1.25 -0.83,-1.25 L -0.83,-1.25 Z"></path></g><g transform="translate(62.32281684192412 159.27419834800196) rotate(0 -26.16140842096206 23.083607751821546)" stroke="none"><path fill="grey" d="M -1.17,1.46 Q -1.17,1.46 -3.63,0.08 -6.10,-1.30 -8.36,-1.76 -10.61,-2.23 -13.24,-2.48 -15.86,-2.74 -19.57,-1.17 -23.29,0.40 -27.09,2.75 -30.89,5.10 -34.21,7.81 -37.53,10.51 -40.13,13.70 -42.72,16.90 -44.64,20.32 -46.56,23.75 -47.28,27.92 -47.99,32.10 -47.51,34.83 -47.04,37.56 -44.88,40.11 -42.72,42.66 -40.67,44.15 -38.62,45.64 -34.98,46.60 -31.35,47.57 -28.06,48.04 -24.76,48.51 -21.82,48.29 -18.88,48.07 -16.85,47.60 -14.81,47.14 -13.14,46.62 -11.46,46.10 -10.02,45.65 -8.58,45.20 -8.40,45.08 -8.23,44.96 -8.02,44.91 -7.82,44.86 -7.60,44.87 -7.39,44.88 -7.20,44.96 -7.00,45.04 -6.84,45.18 -6.68,45.32 -6.57,45.51 -6.46,45.69 -6.42,45.90 -6.38,46.11 -6.40,46.32 -6.43,46.53 -6.52,46.72 -6.61,46.91 -6.76,47.06 -6.91,47.22 -7.10,47.31 -7.28,47.41 -7.49,47.44 -7.71,47.48 -7.91,47.44 -8.12,47.40 -8.31,47.30 -8.50,47.20 -8.64,47.04 -8.79,46.89 -8.87,46.69 -8.96,46.50 -8.98,46.29 -9.00,46.08 -8.95,45.87 -8.90,45.66 -8.79,45.48 -8.68,45.30 -8.52,45.16 -8.35,45.03 -8.15,44.95 -7.96,44.88 -7.74,44.87 -7.53,44.86 -7.33,44.92 -7.12,44.98 -6.95,45.10 -6.78,45.22 -6.65,45.39 -6.52,45.56 -6.46,45.76 -6.39,45.97 -6.39,46.18 -6.40,46.39 -6.47,46.59 -6.54,46.79 -6.67,46.96 -6.80,47.13 -6.80,47.13 -6.80,47.13 -8.10,49.21 -9.39,51.29 -11.41,52.11 -13.44,52.93 -15.94,53.54 -18.45,54.15 -22.04,54.38 -25.62,54.61 -29.35,54.06 -33.08,53.51 -37.65,52.06 -42.22,50.62 -44.89,48.53 -47.55,46.43 -50.25,42.64 -52.95,38.84 -53.49,34.96 -54.03,31.08 -52.98,25.95 -51.92,20.82 -49.69,16.92 -47.45,13.02 -44.41,9.40 -41.38,5.78 -37.72,2.84 -34.05,-0.08 -29.74,-2.65 -25.43,-5.23 -20.47,-6.92 -15.51,-8.62 -12.29,-8.24 -9.06,-7.85 -5.90,-6.81 -2.74,-5.77 -0.78,-3.62 1.17,-1.46 1.33,-1.30 1.49,-1.14 1.60,-0.94 1.72,-0.75 1.78,-0.53 1.85,-0.31 1.86,-0.09 1.87,0.13 1.83,0.35 1.78,0.57 1.69,0.78 1.59,0.98 1.45,1.16 1.31,1.34 1.13,1.47 0.95,1.61 0.74,1.70 0.54,1.79 0.31,1.83 0.09,1.87 -0.13,1.85 -0.35,1.84 -0.57,1.77 -0.78,1.70 -0.98,1.58 -1.17,1.46 -1.17,1.46 L -1.17,1.46 Z"></path></g><g transform="translate(76.1730225863248 79.25102872200193) rotate(0 76.94545701394668 -34.62551436100097)" stroke="none"><path fill="white" d="M -1.91,-1.43 Q -1.91,-1.43 -0.92,-3.44 0.06,-5.45 1.34,-8.52 2.61,-11.60 4.59,-15.75 6.58,-19.91 8.27,-23.81 9.95,-27.72 12.06,-31.72 14.17,-35.73 16.45,-39.28 18.72,-42.83 22.57,-46.38 26.41,-49.93 30.68,-53.18 34.96,-56.43 40.03,-59.22 45.10,-62.02 50.93,-64.14 56.77,-66.27 65.57,-68.09 74.37,-69.91 81.72,-70.68 89.07,-71.44 96.41,-70.88 103.75,-70.31 110.53,-68.69 117.31,-67.07 122.93,-65.02 128.56,-62.96 134.36,-58.80 140.17,-54.65 144.09,-50.03 148.02,-45.42 150.26,-40.05 152.50,-34.69 153.84,-30.24 155.18,-25.78 155.77,-21.48 156.37,-17.19 156.61,-14.49 156.85,-11.79 155.24,-8.83 153.63,-5.87 153.55,-5.67 153.47,-5.47 153.33,-5.31 153.20,-5.15 153.01,-5.04 152.83,-4.93 152.62,-4.88 152.42,-4.84 152.20,-4.86 151.99,-4.89 151.80,-4.98 151.61,-5.07 151.45,-5.21 151.30,-5.36 151.20,-5.55 151.10,-5.73 151.07,-5.94 151.03,-6.15 151.07,-6.36 151.10,-6.57 151.20,-6.76 151.30,-6.95 151.46,-7.09 151.61,-7.24 151.81,-7.33 152.00,-7.42 152.21,-7.44 152.42,-7.46 152.63,-7.42 152.84,-7.37 153.02,-7.26 153.20,-7.15 153.34,-6.99 153.47,-6.83 153.55,-6.63 153.63,-6.43 153.64,-6.22 153.65,-6.01 153.60,-5.80 153.54,-5.60 153.42,-5.42 153.30,-5.25 153.13,-5.12 152.96,-4.99 152.76,-4.92 152.56,-4.85 152.34,-4.85 152.13,-4.86 151.93,-4.92 151.73,-4.99 151.56,-5.12 151.39,-5.25 151.27,-5.43 151.15,-5.60 151.10,-5.81 151.04,-6.01 151.05,-6.22 151.07,-6.44 151.07,-6.44 151.07,-6.44 150.65,-8.86 150.24,-11.29 150.01,-13.80 149.79,-16.30 149.29,-20.10 148.80,-23.89 147.56,-28.05 146.33,-32.22 144.61,-36.73 142.88,-41.25 139.56,-45.29 136.24,-49.34 131.23,-53.07 126.23,-56.81 120.99,-58.74 115.76,-60.67 109.48,-62.19 103.20,-63.71 96.47,-64.29 89.73,-64.86 82.71,-64.15 75.69,-63.43 67.33,-61.77 58.98,-60.10 53.59,-58.20 48.21,-56.30 43.53,-53.77 38.85,-51.24 34.76,-48.20 30.68,-45.17 27.34,-42.27 24.00,-39.37 21.88,-36.07 19.76,-32.78 17.76,-28.99 15.76,-25.21 14.02,-21.20 12.29,-17.20 10.39,-13.15 8.48,-9.10 6.86,-5.36 5.24,-1.62 3.57,-0.09 1.91,1.43 1.71,1.64 1.51,1.85 1.27,2.00 1.02,2.15 0.75,2.25 0.48,2.34 0.19,2.36 -0.09,2.38 -0.37,2.34 -0.66,2.29 -0.92,2.18 -1.19,2.07 -1.42,1.89 -1.65,1.72 -1.83,1.50 -2.02,1.27 -2.14,1.01 -2.26,0.75 -2.32,0.47 -2.38,0.19 -2.37,-0.09 -2.36,-0.38 -2.28,-0.65 -2.20,-0.93 -2.05,-1.18 -1.91,-1.43 -1.91,-1.43 L -1.91,-1.43 Z"></path></g><g transform="translate(244.5921308406878 130.15542099774996) rotate(0 -10.41752801561961 22.838443263720933)" stroke="none"><path fill="white" d="M -0.51,1.41 Q -0.51,1.41 -3.26,1.08 -6.00,0.75 -7.81,0.46 -9.61,0.17 -11.24,0.04 -12.87,-0.08 -14.50,0.08 -16.14,0.24 -18.41,1.15 -20.69,2.07 -22.73,3.32 -24.77,4.57 -26.48,5.96 -28.20,7.35 -29.84,8.84 -31.47,10.33 -32.88,12.55 -34.28,14.77 -35.05,16.93 -35.82,19.09 -36.11,21.42 -36.40,23.75 -36.09,25.85 -35.78,27.94 -34.87,29.94 -33.95,31.95 -31.96,33.95 -29.96,35.94 -27.92,37.82 -25.88,39.69 -24.05,40.81 -22.22,41.93 -20.16,42.84 -18.09,43.75 -15.65,44.59 -13.21,45.43 -11.22,45.75 -9.22,46.07 -7.44,46.00 -5.66,45.92 -4.05,45.28 -2.44,44.65 -0.42,43.52 1.60,42.40 3.93,40.44 6.27,38.47 8.13,36.37 9.99,34.26 11.47,32.26 12.94,30.26 13.69,28.49 14.44,26.73 14.99,24.47 15.54,22.22 15.78,20.23 16.02,18.24 15.49,16.67 14.96,15.10 13.97,13.67 12.98,12.24 11.33,10.83 9.69,9.41 7.71,7.51 5.73,5.62 3.28,3.31 0.83,1.01 0.64,1.12 0.46,1.22 0.25,1.27 0.04,1.31 -0.16,1.28 -0.37,1.25 -0.56,1.16 -0.75,1.07 -0.90,0.92 -1.06,0.77 -1.15,0.58 -1.25,0.39 -1.28,0.18 -1.31,-0.02 -1.27,-0.23 -1.23,-0.44 -1.13,-0.62 -1.02,-0.81 -0.87,-0.95 -0.71,-1.10 -0.52,-1.18 -0.32,-1.27 -0.11,-1.29 0.09,-1.30 0.30,-1.26 0.50,-1.21 0.68,-1.09 0.86,-0.98 1.00,-0.81 1.13,-0.65 1.21,-0.45 1.28,-0.25 1.29,-0.04 1.30,0.16 1.24,0.37 1.18,0.57 1.05,0.74 0.93,0.92 0.76,1.04 0.59,1.17 0.38,1.23 0.18,1.29 -0.02,1.29 -0.23,1.29 -0.43,1.21 -0.63,1.14 -0.80,1.01 -0.97,0.88 -1.08,0.70 -1.20,0.52 -1.25,0.32 -1.30,0.11 -1.29,-0.09 -1.27,-0.30 -1.19,-0.50 -1.11,-0.69 -0.97,-0.85 -0.83,-1.01 -0.83,-1.01 -0.83,-1.01 4.40,0.24 9.64,1.51 11.56,3.35 13.49,5.19 15.60,7.16 17.71,9.13 19.06,11.32 20.40,13.51 21.04,16.12 21.67,18.74 21.39,21.16 21.12,23.58 20.45,26.30 19.79,29.02 18.76,31.37 17.73,33.71 16.11,35.96 14.49,38.21 12.33,40.68 10.17,43.15 7.36,45.46 4.55,47.77 2.07,49.10 -0.39,50.43 -2.88,51.23 -5.37,52.04 -7.80,52.10 -10.23,52.17 -12.72,51.73 -15.22,51.30 -17.92,50.36 -20.62,49.41 -23.07,48.31 -25.52,47.20 -27.79,45.74 -30.07,44.28 -32.28,42.25 -34.49,40.22 -37.07,37.37 -39.65,34.53 -40.82,31.63 -42.00,28.74 -42.28,25.81 -42.55,22.89 -42.05,19.91 -41.55,16.94 -40.45,14.20 -39.35,11.47 -37.44,8.68 -35.54,5.90 -33.72,4.27 -31.91,2.65 -29.85,1.06 -27.78,-0.52 -25.26,-1.96 -22.75,-3.39 -19.71,-4.46 -16.68,-5.52 -14.51,-5.68 -12.34,-5.83 -10.43,-5.63 -8.51,-5.42 -6.32,-4.93 -4.12,-4.43 -1.80,-2.92 0.51,-1.41 0.67,-1.33 0.83,-1.25 0.97,-1.13 1.11,-1.01 1.21,-0.86 1.32,-0.71 1.38,-0.54 1.45,-0.38 1.48,-0.20 1.50,-0.02 1.48,0.15 1.46,0.34 1.40,0.51 1.34,0.68 1.24,0.83 1.14,0.98 1.00,1.10 0.87,1.22 0.71,1.31 0.55,1.39 0.37,1.44 0.20,1.49 0.02,1.49 -0.16,1.49 -0.33,1.45 -0.51,1.41 -0.51,1.41 L -0.51,1.41 Z"></path></g><g transform="translate(194.90846984828295 215.09837936391705) rotate(0 42.070841476326336 -12.020231687798969)" stroke="none"><path fill="white" d="M -2.17,0.27 Q -2.17,0.27 -2.80,-1.52 -3.44,-3.31 -3.56,-5.59 -3.67,-7.88 -3.72,-9.52 -3.76,-11.16 -3.78,-12.56 -3.80,-13.97 -3.53,-15.37 -3.26,-16.76 -2.53,-18.12 -1.79,-19.47 -1.05,-20.61 -0.30,-21.75 1.05,-22.83 2.42,-23.91 3.75,-24.56 5.08,-25.21 7.22,-25.77 9.35,-26.33 11.06,-26.75 12.77,-27.18 14.86,-27.40 16.96,-27.62 18.82,-27.93 20.67,-28.23 22.79,-28.38 24.91,-28.52 27.04,-28.80 29.17,-29.08 32.21,-29.43 35.24,-29.79 37.87,-30.17 40.49,-30.55 43.13,-30.72 45.76,-30.90 48.97,-30.97 52.18,-31.04 54.91,-31.07 57.65,-31.09 59.96,-31.11 62.28,-31.12 64.19,-31.12 66.09,-31.13 68.03,-30.89 69.96,-30.64 71.54,-30.29 73.11,-29.95 74.65,-29.57 76.20,-29.20 77.46,-28.76 78.73,-28.32 80.01,-27.51 81.29,-26.70 82.22,-25.71 83.15,-24.72 84.04,-23.27 84.93,-21.82 85.55,-20.44 86.17,-19.07 86.66,-17.78 87.15,-16.50 87.41,-15.28 87.68,-14.06 87.78,-12.52 87.88,-10.97 87.92,-8.95 87.96,-6.94 87.73,-4.97 87.50,-3.01 87.15,-1.43 86.79,0.15 84.83,2.40 82.88,4.65 82.74,4.81 82.61,4.98 82.43,5.09 82.25,5.21 82.05,5.26 81.84,5.31 81.63,5.29 81.42,5.28 81.22,5.19 81.03,5.11 80.87,4.97 80.71,4.83 80.61,4.64 80.50,4.46 80.46,4.25 80.42,4.04 80.45,3.83 80.48,3.62 80.57,3.43 80.67,3.24 80.82,3.09 80.97,2.94 81.16,2.84 81.35,2.75 81.56,2.72 81.77,2.69 81.98,2.73 82.18,2.77 82.37,2.87 82.55,2.98 82.70,3.14 82.84,3.29 82.92,3.49 83.01,3.68 83.02,3.90 83.04,4.11 82.99,4.31 82.94,4.52 82.83,4.70 82.71,4.88 82.55,5.01 82.38,5.14 82.18,5.22 81.98,5.29 81.77,5.30 81.56,5.30 81.35,5.24 81.15,5.18 80.98,5.06 80.80,4.93 80.68,4.76 80.56,4.59 80.49,4.38 80.43,4.18 80.44,3.97 80.44,3.76 80.52,3.56 80.59,3.36 80.59,3.36 80.59,3.36 80.71,1.08 80.83,-1.18 81.12,-2.47 81.41,-3.76 81.61,-5.30 81.82,-6.83 81.78,-8.71 81.75,-10.59 81.56,-12.45 81.37,-14.31 80.94,-15.43 80.51,-16.56 80.05,-17.62 79.59,-18.67 78.70,-20.14 77.81,-21.61 76.27,-22.39 74.74,-23.17 73.23,-23.54 71.72,-23.90 70.44,-24.21 69.15,-24.51 67.63,-24.73 66.10,-24.94 64.21,-24.94 62.31,-24.93 60.01,-24.92 57.71,-24.90 55.01,-24.87 52.31,-24.84 49.24,-24.78 46.16,-24.71 43.76,-24.56 41.37,-24.41 38.66,-24.03 35.96,-23.65 32.96,-23.30 29.96,-22.96 27.64,-22.66 25.32,-22.37 23.47,-22.25 21.63,-22.14 19.59,-21.83 17.54,-21.52 15.88,-21.38 14.22,-21.24 12.51,-20.82 10.80,-20.40 9.22,-20.06 7.65,-19.71 6.15,-19.02 4.65,-18.33 4.00,-17.32 3.36,-16.31 2.80,-15.16 2.25,-14.01 2.26,-12.66 2.28,-11.31 2.32,-9.73 2.36,-8.15 2.44,-6.10 2.52,-4.05 2.34,-2.16 2.17,-0.27 2.17,-0.00 2.17,0.25 2.11,0.51 2.05,0.77 1.93,1.00 1.80,1.23 1.63,1.43 1.46,1.63 1.24,1.78 1.02,1.93 0.77,2.03 0.53,2.12 0.27,2.16 0.00,2.19 -0.25,2.16 -0.51,2.13 -0.76,2.03 -1.01,1.94 -1.23,1.79 -1.44,1.64 -1.62,1.44 -1.80,1.25 -1.92,1.01 -2.04,0.78 -2.11,0.52 -2.17,0.27 -2.17,0.27 L -2.17,0.27 Z"></path></g><g transform="translate(245.54962032906656 56.50136543977021) rotate(0 -18.90261125346774 16.61142272714909)" stroke="none"><path fill="white" d="M 1.42,1.13 Q 1.42,1.13 0.59,3.17 -0.23,5.20 -1.03,6.45 -1.82,7.70 -2.86,9.27 -3.89,10.84 -4.89,12.97 -5.88,15.09 -6.64,16.98 -7.40,18.86 -8.09,20.41 -8.78,21.96 -9.37,23.49 -9.96,25.03 -10.60,26.44 -11.23,27.85 -11.49,29.09 -11.74,30.32 -12.63,32.07 -13.51,33.81 -13.75,34.38 -13.98,34.94 -14.29,35.12 -14.60,35.31 -14.95,35.41 -15.30,35.52 -15.66,35.54 -16.02,35.56 -16.37,35.49 -16.73,35.42 -17.06,35.27 -17.39,35.12 -17.67,34.89 -17.95,34.67 -18.18,34.38 -18.40,34.10 -18.54,33.76 -18.69,33.43 -18.75,33.08 -18.81,32.72 -18.79,32.36 -18.76,32.00 -18.65,31.65 -18.54,31.31 -18.35,31.00 -18.16,30.69 -17.91,30.44 -17.65,30.18 -18.14,31.83 -18.63,33.48 -19.59,32.14 -20.55,30.80 -21.42,29.10 -22.29,27.41 -23.55,25.27 -24.80,23.14 -25.91,21.69 -27.02,20.24 -28.22,18.53 -29.42,16.83 -30.50,15.56 -31.57,14.30 -32.57,12.46 -33.57,10.62 -34.74,9.21 -35.92,7.80 -37.20,5.60 -38.49,3.40 -38.65,3.26 -38.81,3.12 -38.92,2.94 -39.03,2.76 -39.07,2.55 -39.11,2.34 -39.09,2.13 -39.06,1.92 -38.97,1.73 -38.88,1.54 -38.73,1.38 -38.58,1.23 -38.39,1.13 -38.20,1.04 -37.99,1.00 -37.78,0.97 -37.58,1.01 -37.37,1.05 -37.18,1.15 -36.99,1.25 -36.85,1.41 -36.70,1.56 -36.62,1.76 -36.53,1.95 -36.51,2.16 -36.49,2.37 -36.54,2.58 -36.59,2.79 -36.70,2.97 -36.81,3.15 -36.97,3.28 -37.14,3.42 -37.33,3.50 -37.53,3.57 -37.75,3.58 -37.96,3.59 -38.16,3.53 -38.37,3.47 -38.54,3.35 -38.71,3.23 -38.84,3.06 -38.97,2.89 -39.03,2.69 -39.10,2.48 -39.10,2.27 -39.09,2.06 -39.02,1.86 -38.95,1.66 -38.82,1.49 -38.69,1.32 -38.51,1.20 -38.34,1.09 -38.13,1.03 -37.93,0.98 -37.71,0.99 -37.50,1.01 -37.31,1.09 -37.11,1.17 -37.11,1.17 -37.11,1.17 -34.13,2.56 -31.15,3.95 -29.65,5.86 -28.15,7.76 -27.51,9.06 -26.86,10.37 -25.63,11.84 -24.39,13.31 -23.26,14.95 -22.12,16.59 -20.83,18.36 -19.54,20.14 -18.24,22.48 -16.95,24.83 -16.47,25.93 -15.99,27.03 -14.62,29.05 -13.25,31.08 -13.61,33.01 -13.98,34.94 -14.29,35.12 -14.60,35.31 -14.95,35.41 -15.30,35.52 -15.66,35.54 -16.02,35.56 -16.37,35.49 -16.73,35.42 -17.06,35.27 -17.39,35.12 -17.67,34.89 -17.95,34.67 -18.17,34.38 -18.40,34.10 -18.54,33.76 -18.69,33.43 -18.75,33.08 -18.81,32.72 -18.79,32.36 -18.76,32.00 -18.65,31.65 -18.54,31.31 -18.35,31.00 -18.16,30.69 -17.91,30.44 -17.65,30.18 -17.54,30.19 -17.43,30.20 -17.43,28.92 -17.44,27.64 -17.12,26.53 -16.80,25.43 -16.25,24.14 -15.71,22.86 -15.07,21.15 -14.44,19.43 -13.79,17.99 -13.14,16.54 -12.31,14.49 -11.48,12.43 -10.27,9.93 -9.07,7.43 -8.03,5.87 -6.99,4.31 -6.01,2.84 -5.03,1.37 -3.22,0.11 -1.42,-1.13 -1.26,-1.29 -1.10,-1.44 -0.91,-1.55 -0.73,-1.66 -0.52,-1.73 -0.31,-1.79 -0.09,-1.80 0.12,-1.81 0.34,-1.77 0.55,-1.73 0.75,-1.64 0.95,-1.54 1.12,-1.41 1.30,-1.27 1.43,-1.10 1.56,-0.92 1.65,-0.72 1.74,-0.52 1.78,-0.30 1.81,-0.09 1.80,0.12 1.78,0.34 1.72,0.55 1.65,0.76 1.53,0.95 1.42,1.13 1.42,1.13 L 1.42,1.13 Z"></path></g></svg>