<svg width="55" height="62" viewBox="0 0 55 62" fill="none" xmlns="http://www.w3.org/2000/svg">
<path d="M17.854 1.85C17.854 1.85 17.9906 2.62 18.264 4.16C18.5373 5.7 18.584 7.17333 18.404 8.58C18.224 9.99333 18.0306 11.4367 17.824 12.91C17.6173 14.3833 17.2573 15.83 16.744 17.25C16.2306 18.67 15.974 19.45 15.974 19.59C15.974 19.7367 15.954 19.8767 15.914 20.01C15.8673 20.1433 15.8006 20.2667 15.714 20.38C15.6273 20.4933 15.5273 20.59 15.414 20.67C15.294 20.75 15.1673 20.81 15.034 20.85C14.894 20.89 14.754 20.9033 14.614 20.89C14.474 20.8833 14.3373 20.8567 14.204 20.81C14.0706 20.7567 13.9506 20.6833 13.844 20.59C13.7373 20.5033 13.6473 20.3967 13.574 20.27C13.5006 20.15 13.4473 20.0233 13.414 19.89C13.3806 19.75 13.374 19.61 13.394 19.47C13.4073 19.33 13.444 19.1933 13.504 19.06C13.5573 18.9333 13.634 18.8167 13.734 18.71C13.834 18.61 13.944 18.5267 14.064 18.46C14.1906 18.3933 14.324 18.3467 14.464 18.32C14.604 18.3 14.744 18.3 14.884 18.32C15.024 18.34 15.1573 18.3833 15.284 18.45C15.404 18.5167 15.514 18.6 15.614 18.7C15.714 18.8067 15.794 18.9233 15.854 19.05C15.914 19.1767 15.9506 19.31 15.964 19.45C15.984 19.5967 15.9773 19.7367 15.944 19.87C15.9173 20.01 15.8673 20.14 15.794 20.26C15.7206 20.3867 15.6306 20.4933 15.524 20.58C15.4173 20.6733 15.2973 20.7467 15.164 20.8C15.0306 20.8533 14.894 20.8833 14.754 20.89C14.614 20.9033 14.474 20.89 14.334 20.85C14.2006 20.81 14.074 20.7533 13.954 20.68C13.8406 20.6 13.7406 20.5033 13.654 20.39C13.5673 20.2767 13.5006 20.1533 13.454 20.02C13.4073 19.8867 13.384 19.82 13.384 19.82C13.384 19.82 13.084 18.92 12.484 17.12C11.884 15.3133 11.6573 13.66 11.804 12.16C11.9506 10.66 12.114 9.2 12.294 7.78C12.4806 6.36667 12.9073 4.95333 13.574 3.54C14.2406 2.13333 14.5906 1.36333 14.624 1.23C14.6573 1.10333 14.7073 0.98 14.774 0.86C14.834 0.746667 14.9106 0.64 15.004 0.54C15.0906 0.44 15.1906 0.353333 15.304 0.28C15.4106 0.206667 15.5273 0.146667 15.654 0.1C15.7806 0.0533334 15.9106 0.0233333 16.044 0.01C16.164 -0.00333333 16.2906 -0.00333333 16.424 0.01C16.5573 0.03 16.6873 0.0633334 16.814 0.11C16.934 0.163333 17.0506 0.226667 17.164 0.3C17.2706 0.38 17.3673 0.47 17.454 0.57C17.5406 0.67 17.614 0.78 17.674 0.9C17.734 1.02 17.7806 1.14333 17.814 1.27C17.8406 1.39667 17.854 1.52333 17.854 1.65C17.854 1.78333 17.854 1.85 17.854 1.85Z" fill="#FFFF00"/>
<path d="M21.79 12.8427C21.79 12.8427 20.7967 13.0227 18.81 13.3827C16.8167 13.7427 15.1167 13.8994 13.71 13.8527C12.3033 13.806 11.1167 13.7494 10.15 13.6827C9.19002 13.616 7.90002 13.6794 6.28002 13.8727C4.66002 14.0594 3.78002 14.166 3.64002 14.1927C3.50668 14.226 3.37002 14.2327 3.23002 14.2127C3.09002 14.1927 2.95335 14.1527 2.82001 14.0927C2.69335 14.0327 2.58002 13.9527 2.48002 13.8527C2.38002 13.7527 2.29668 13.6394 2.23002 13.5127C2.17002 13.386 2.12668 13.2527 2.10002 13.1127C2.08002 12.9727 2.08335 12.8327 2.11002 12.6927C2.13668 12.5594 2.18335 12.4294 2.25001 12.3027C2.31668 12.176 2.40335 12.066 2.51002 11.9727C2.61668 11.8794 2.73335 11.8027 2.86002 11.7427C2.99335 11.6827 3.13002 11.646 3.27002 11.6327C3.41002 11.6194 3.55002 11.6294 3.69002 11.6627C3.82335 11.696 3.95001 11.7527 4.07001 11.8327C4.19001 11.906 4.29668 11.996 4.39002 12.1027C4.47668 12.216 4.54668 12.336 4.60002 12.4627C4.64668 12.596 4.67335 12.736 4.68002 12.8827C4.68668 13.0227 4.67002 13.1594 4.63002 13.2927C4.59002 13.4327 4.53002 13.5594 4.45002 13.6727C4.37002 13.786 4.27002 13.886 4.15002 13.9727C4.03668 14.0527 3.91335 14.116 3.78002 14.1627C3.64668 14.2027 3.51002 14.2227 3.37002 14.2227C3.22335 14.2227 3.08335 14.1994 2.95002 14.1527C2.81668 14.106 2.69668 14.036 2.59002 13.9427C2.47668 13.856 2.38002 13.7527 2.30002 13.6327C2.22668 13.5194 2.17002 13.3927 2.13002 13.2527C2.09668 13.1194 2.08335 12.9794 2.09002 12.8327C2.10335 12.6927 2.13668 12.5594 2.19002 12.4327C2.24335 12.2994 2.31668 12.1794 2.41001 12.0727C2.50335 11.966 2.61335 11.876 2.74001 11.8027C2.86001 11.736 2.92001 11.7027 2.92001 11.7027C2.92001 11.7027 3.87668 11.1294 5.79002 9.98271C7.70335 8.82938 9.17668 8.23605 10.21 8.20271C11.25 8.17605 12.49 8.17938 13.93 8.21271C15.3767 8.25271 17.0733 8.55271 19.02 9.11271C20.96 9.66605 21.9867 9.95271 22.1 9.97271C22.2133 9.99271 22.3233 10.026 22.43 10.0727C22.5367 10.1194 22.6367 10.1794 22.73 10.2527C22.8233 10.326 22.9067 10.406 22.98 10.4927C23.0533 10.586 23.1133 10.686 23.16 10.7927C23.2133 10.8994 23.25 11.0094 23.27 11.1227C23.2967 11.236 23.3067 11.3494 23.3 11.4627C23.2933 11.576 23.2733 11.6894 23.24 11.8027C23.2067 11.916 23.16 12.0227 23.1 12.1227C23.04 12.2227 22.97 12.3127 22.89 12.3927C22.8033 12.4794 22.71 12.5527 22.61 12.6127C22.5167 12.6727 22.4133 12.7227 22.3 12.7627C22.1867 12.796 22.0733 12.816 21.96 12.8227C21.8467 12.836 21.79 12.8427 21.79 12.8427Z" fill="#FFFF00"/>
<path d="M21.45 27.6015C21.45 27.6015 21.52 27.1781 21.66 26.3315C21.7933 25.4848 22.04 24.6815 22.4 23.9215C22.76 23.1548 23.0533 22.4248 23.28 21.7315C23.4933 21.0381 23.83 20.1915 24.29 19.1915C24.75 18.1848 25.1167 17.3181 25.39 16.5915C25.6633 15.8648 25.9867 15.1481 26.36 14.4415C26.7333 13.7348 27.08 13.0448 27.4 12.3715C27.7133 11.6981 28.1833 10.9915 28.81 10.2515C29.4367 9.5048 29.7333 9.0848 29.7 8.99147C29.6667 8.9048 29.6933 8.78813 29.78 8.64147C29.8667 8.50147 29.9667 8.37147 30.08 8.25147C30.2 8.13147 30.33 8.02813 30.47 7.94147C30.6167 7.86147 30.77 7.7948 30.93 7.74147C31.09 7.6948 31.2533 7.6648 31.42 7.65147C31.5867 7.63813 31.75 7.64813 31.91 7.68147C32.0767 7.70813 32.2367 7.75813 32.39 7.83147C32.5367 7.89813 32.6767 7.98147 32.81 8.08147C32.9433 8.18813 33.06 8.3048 33.16 8.43147C33.2667 8.5648 33.3533 8.70813 33.42 8.86147C33.4867 9.0148 33.5367 9.17147 33.57 9.33147C33.5967 9.49813 33.6067 9.6648 33.6 9.83147C33.5867 9.99813 33.5567 10.1615 33.51 10.3215C33.4633 10.4815 33.54 10.9848 33.74 11.8315C33.94 12.6848 34.1 13.6548 34.22 14.7415C34.3467 15.8281 34.4967 16.9448 34.67 18.0915C34.8433 19.2381 34.97 20.2948 35.05 21.2615C35.1367 22.2281 35.27 23.1948 35.45 24.1615C35.6367 25.1348 36.3467 25.4781 37.58 25.1915C38.8067 24.9048 40.0533 24.8515 41.32 25.0315C42.5867 25.2048 43.5867 25.3648 44.32 25.5115C45.0533 25.6648 45.9833 25.8415 47.11 26.0415C48.2367 26.2481 49.24 26.5381 50.12 26.9115C50.9933 27.2915 51.8167 27.6415 52.59 27.9615C53.3633 28.2681 53.91 29.1648 54.23 30.6515C54.5433 32.1381 54.25 33.0615 53.35 33.4215C52.45 33.7748 51.2867 34.0315 49.86 34.1915C48.4267 34.3448 47.0833 34.5448 45.83 34.7915C44.5767 35.0448 43.2667 35.2715 41.9 35.4715C40.5333 35.6648 39.32 35.8715 38.26 36.0915C37.1933 36.3181 36.4433 36.7615 36.01 37.4215C35.5767 38.0815 35.2033 38.9348 34.89 39.9815C34.5833 41.0215 34.35 41.8948 34.19 42.6015C34.0367 43.3081 33.7733 44.2515 33.4 45.4315C33.0267 46.6048 32.8033 47.5848 32.73 48.3715C32.6633 49.1515 32.16 49.9748 31.22 50.8415C30.2867 51.7015 29.44 52.0348 28.68 51.8415C27.92 51.6481 27.2933 51.0481 26.8 50.0415C26.3 49.0348 25.9033 48.2015 25.61 47.5415C25.31 46.8748 24.94 45.9881 24.5 44.8815C24.06 43.7815 23.5367 42.8081 22.93 41.9615C22.31 41.1215 21.8567 40.3581 21.57 39.6715C21.2833 38.9848 20.71 38.6515 19.85 38.6715C18.9967 38.6915 18.0267 38.5481 16.94 38.2415C15.8533 37.9281 14.71 37.6948 13.51 37.5415C12.31 37.3815 11.3667 37.2181 10.68 37.0515C9.98667 36.8781 9.24667 36.6815 8.46 36.4615C7.67333 36.2415 6.94667 35.9848 6.28 35.6915C5.60667 35.4048 4.76667 35.1281 3.76 34.8615C2.75333 34.5948 2.38 34.4981 2.64 34.5715C2.89333 34.6448 2.9 34.6648 2.66 34.6315C2.41333 34.6048 2.17667 34.5481 1.95 34.4615C1.71667 34.3681 1.5 34.2515 1.3 34.1115C1.1 33.9715 0.916667 33.8115 0.75 33.6315C0.59 33.4448 0.453333 33.2415 0.34 33.0215C0.226667 32.8081 0.14 32.5815 0.0799999 32.3415C0.0266666 32.1015 0 31.8581 0 31.6115C0 31.3648 0.0300002 31.1215 0.0900002 30.8815C0.15 30.6481 0.236667 30.4215 0.35 30.2015C0.47 29.9881 0.61 29.7881 0.77 29.6015C0.936667 29.4215 1.12 29.2615 1.32 29.1215C1.52 28.9815 1.73667 28.8681 1.97 28.7815C2.20333 28.6948 2.44 28.6381 2.68 28.6115C2.92667 28.5848 3.77 28.3881 5.21 28.0215C6.65 27.6548 8.09333 27.3381 9.54 27.0715C10.9867 26.8048 12.1367 26.6315 12.99 26.5515C13.8433 26.4781 14.91 26.3548 16.19 26.1815C17.47 26.0081 18.9467 26.1115 20.62 26.4915C22.2933 26.8648 23.1833 27.0481 23.29 27.0415C23.39 27.0281 23.4933 27.0315 23.6 27.0515C23.7 27.0648 23.8 27.0915 23.9 27.1315C23.9933 27.1715 24.0833 27.2248 24.17 27.2915C24.2567 27.3515 24.3333 27.4215 24.4 27.5015C24.4667 27.5881 24.5233 27.6781 24.57 27.7715C24.6167 27.8648 24.65 27.9648 24.67 28.0715C24.69 28.1715 24.7 28.2715 24.7 28.3715C24.6933 28.4781 24.6767 28.5815 24.65 28.6815C24.6233 28.7815 24.5833 28.8781 24.53 28.9715C24.4767 29.0648 24.4133 29.1481 24.34 29.2215C24.2667 29.3015 24.1867 29.3681 24.1 29.4215C24.0133 29.4815 23.92 29.5281 23.82 29.5615C23.72 29.5948 23.8133 29.5081 24.1 29.3015C24.38 29.1015 24.4767 29.0548 24.39 29.1615C24.2967 29.2681 24.19 29.3581 24.07 29.4315C23.95 29.5048 23.82 29.5581 23.68 29.5915C23.54 29.6248 23.4033 29.6315 23.27 29.6115C23.13 29.5981 22.9967 29.5615 22.87 29.5015C22.7367 29.4481 22.62 29.3715 22.52 29.2715C22.4133 29.1781 22.3267 29.0681 22.26 28.9415C22.1933 28.8148 22.15 28.6815 22.13 28.5415C22.1033 28.4015 22.1 28.2648 22.12 28.1315C22.1467 27.9915 22.1933 27.8581 22.26 27.7315C22.32 27.6115 22.4033 27.5015 22.51 27.4015C22.61 27.3015 22.7233 27.2215 22.85 27.1615C22.9833 27.1015 23.12 27.0648 23.26 27.0515C23.3933 27.0315 23.53 27.0381 23.67 27.0715C23.8033 27.0981 23.9333 27.1481 24.06 27.2215C24.18 27.2948 24.2867 27.3848 24.38 27.4915C24.4733 27.5981 24.5467 27.7181 24.6 27.8515C24.6533 27.9848 24.6833 28.1215 24.69 28.2615C24.6967 28.3948 24.6833 28.5281 24.65 28.6615C24.61 28.8015 24.55 28.9315 24.47 29.0515C24.39 29.1648 24.2967 29.2648 24.19 29.3515C24.0767 29.4381 23.9533 29.5048 23.82 29.5515C23.6867 29.5981 23.5467 29.6215 23.4 29.6215C23.2667 29.6215 23.1333 29.6015 23 29.5615C22.8667 29.5148 22.7433 29.4481 22.63 29.3615C22.5167 29.2748 22.42 29.1748 22.34 29.0615C22.26 28.9415 22.2 28.8148 22.16 28.6815C22.12 28.5415 22.1033 28.4048 22.11 28.2715C22.1167 28.1315 22.29 27.8948 22.63 27.5615C22.9633 27.2215 23.1833 27.0481 23.29 27.0415C23.39 27.0281 23.4933 27.0315 23.6 27.0515C23.7 27.0648 23.8 27.0915 23.9 27.1315C23.9933 27.1715 24.0833 27.2248 24.17 27.2915C24.2567 27.3515 24.3333 27.4215 24.4 27.5015C24.4667 27.5881 24.5233 27.6781 24.57 27.7715C24.6167 27.8648 24.65 27.9648 24.67 28.0715C24.69 28.1715 24.7 28.2715 24.7 28.3715C24.6933 28.4781 24.6767 28.5815 24.65 28.6815C24.6233 28.7815 24.5833 28.8781 24.53 28.9715C24.4767 29.0648 24.4133 29.1481 24.34 29.2215C24.2667 29.3015 24.1867 29.3681 24.1 29.4215C24.0133 29.4815 23.92 29.5281 23.82 29.5615C23.72 29.5948 23.1767 29.9381 22.19 30.5915C21.1967 31.2448 20.0833 31.6648 18.85 31.8515C17.61 32.0315 16.2867 32.2215 14.88 32.4215C13.4733 32.6215 12.3433 32.7948 11.49 32.9415C10.6433 33.0881 9.85 33.2315 9.11 33.3715C8.37 33.5115 7.59333 33.6481 6.78 33.7815C5.96667 33.9081 5.13667 34.0915 4.29 34.3315C3.44333 34.5648 2.9 34.6648 2.66 34.6315C2.41333 34.6048 2.17667 34.5481 1.95 34.4615C1.71667 34.3681 1.5 34.2515 1.3 34.1115C1.1 33.9715 0.916667 33.8115 0.75 33.6315C0.59 33.4448 0.453333 33.2415 0.34 33.0215C0.226667 32.8081 0.14 32.5815 0.0799999 32.3415C0.0266666 32.1015 0 31.8581 0 31.6115C0 31.3648 0.0300002 31.1248 0.0900002 30.8915C0.15 30.6515 0.236667 30.4215 0.35 30.2015C0.47 29.9881 0.61 29.7881 0.77 29.6015C0.936667 29.4215 1.12 29.2615 1.32 29.1215C1.52 28.9815 1.73667 28.8681 1.97 28.7815C2.19667 28.6948 2.43333 28.6381 2.68 28.6115C2.92667 28.5848 3.49 28.6315 4.37 28.7515C5.25667 28.8715 6.15333 29.1215 7.06 29.5015C7.96 29.8815 8.86333 30.1915 9.77 30.4315C10.6767 30.6781 11.74 30.9248 12.96 31.1715C14.1733 31.4248 15.1767 31.6048 15.97 31.7115C16.7633 31.8115 17.5 31.9748 18.18 32.2015C18.86 32.4281 19.6 32.6081 20.4 32.7415C21.2 32.8748 21.9933 33.1115 22.78 33.4515C23.5533 33.7848 24.2833 34.3781 24.97 35.2315C25.6567 36.0915 26.1733 36.8581 26.52 37.5315C26.8733 38.2048 27.36 39.0048 27.98 39.9315C28.6 40.8648 29.0767 41.7848 29.41 42.6915C29.75 43.5915 29.8933 44.6581 29.84 45.8915C29.78 47.1315 29.39 47.8515 28.67 48.0515C27.95 48.2515 27.6667 47.8615 27.82 46.8815C27.9733 45.9081 28.2067 44.9381 28.52 43.9715C28.8267 43.0115 29.16 41.8215 29.52 40.4015C29.8867 38.9748 30.27 37.7181 30.67 36.6315C31.07 35.5448 31.62 34.4448 32.32 33.3315C33.02 32.2181 33.81 31.5915 34.69 31.4515C35.57 31.3048 36.5033 31.1248 37.49 30.9115C38.4767 30.7048 39.6167 30.5115 40.91 30.3315C42.2033 30.1515 43.2133 29.9815 43.94 29.8215C44.66 29.6681 45.41 29.5281 46.19 29.4015C46.9767 29.2815 48.0167 29.2481 49.31 29.3015C50.6033 29.3615 51.1767 29.9748 51.03 31.1415C50.8833 32.3015 50.2233 32.7015 49.05 32.3415C47.8833 31.9881 46.8 31.7248 45.8 31.5515C44.8 31.3781 43.6967 31.1648 42.49 30.9115C41.29 30.6648 40.0333 30.4581 38.72 30.2915C37.4067 30.1248 36.38 30.0115 35.64 29.9515C34.9067 29.8915 34.09 29.7148 33.19 29.4215C32.29 29.1348 31.64 28.5015 31.24 27.5215C30.8333 26.5281 30.5267 25.5248 30.32 24.5115C30.1067 23.4915 29.97 22.6115 29.91 21.8715C29.8567 21.1315 29.7567 20.1715 29.61 18.9915C29.4633 17.8181 29.3433 16.8748 29.25 16.1615C29.15 15.4481 29.13 14.4581 29.19 13.1915C29.25 11.9248 29.34 10.8881 29.46 10.0815C29.5867 9.26813 29.6933 8.78813 29.78 8.64147C29.8667 8.50147 29.9667 8.37147 30.08 8.25147C30.2 8.13147 30.33 8.03147 30.47 7.95147C30.6167 7.8648 30.77 7.7948 30.93 7.74147C31.09 7.6948 31.2533 7.6648 31.42 7.65147C31.58 7.63813 31.7433 7.64813 31.91 7.68147C32.0767 7.70813 32.2367 7.75813 32.39 7.83147C32.5367 7.89813 32.6767 7.98147 32.81 8.08147C32.9433 8.18813 33.06 8.3048 33.16 8.43147C33.2667 8.5648 33.3533 8.70813 33.42 8.86147C33.4867 9.0148 33.5367 9.17147 33.57 9.33147C33.5967 9.49813 33.6067 9.6648 33.6 9.83147C33.5867 9.99813 33.5567 10.1615 33.51 10.3215C33.4633 10.4815 33.31 10.8415 33.05 11.4015C32.79 11.9615 32.4333 12.5315 31.98 13.1115C31.52 13.6915 31.0867 14.4748 30.68 15.4615C30.2733 16.4548 29.94 17.3781 29.68 18.2315C29.4267 19.0848 29.1333 19.9381 28.8 20.7915C28.4667 21.6515 28.1767 22.5348 27.93 23.4415C27.6833 24.3548 27.4167 25.1581 27.13 25.8515C26.85 26.5381 26.4833 27.2481 26.03 27.9815C25.5767 28.7015 25.31 29.1348 25.23 29.2815C25.1567 29.4281 25.0633 29.5648 24.95 29.6915C24.8367 29.8181 24.7133 29.9281 24.58 30.0215C24.44 30.1215 24.2933 30.2015 24.14 30.2615C23.98 30.3215 23.8167 30.3615 23.65 30.3815C23.4833 30.4015 23.32 30.4015 23.16 30.3815C22.9933 30.3615 22.8333 30.3215 22.68 30.2615C22.52 30.2081 22.3733 30.1315 22.24 30.0315C22.1 29.9381 21.9733 29.8281 21.86 29.7015C21.7467 29.5815 21.6533 29.4448 21.58 29.2915C21.5 29.1448 21.44 28.9915 21.4 28.8315C21.36 28.6648 21.3367 28.4981 21.33 28.3315C21.33 28.1715 21.35 28.0115 21.39 27.8515C21.43 27.6848 21.45 27.6015 21.45 27.6015Z" fill="#FFFF00"/>
<path d="M45.5286 47.3234C45.5286 47.3234 45.6819 47.9601 45.9886 49.2334C46.3019 50.5134 46.4653 51.7701 46.4786 53.0034C46.4919 54.2367 46.2019 55.7367 45.6086 57.5034C45.0219 59.2701 44.7153 60.2234 44.6886 60.3634C44.6686 60.5034 44.6253 60.6334 44.5586 60.7534C44.4919 60.8801 44.4086 60.9934 44.3086 61.0934C44.2019 61.1867 44.0853 61.2634 43.9586 61.3234C43.8319 61.3834 43.6986 61.4234 43.5586 61.4434C43.4186 61.4567 43.2819 61.4467 43.1486 61.4134C43.0086 61.3867 42.8786 61.3367 42.7586 61.2634C42.6319 61.1901 42.5253 61.1001 42.4386 60.9934C42.3453 60.8801 42.2719 60.7601 42.2186 60.6334C42.1653 60.5001 42.1353 60.3634 42.1286 60.2234C42.1219 60.0834 42.1386 59.9434 42.1786 59.8034C42.2119 59.6701 42.2686 59.5434 42.3486 59.4234C42.4286 59.3034 42.5253 59.2034 42.6386 59.1234C42.7519 59.0367 42.8753 58.9701 43.0086 58.9234C43.1419 58.8767 43.2786 58.8534 43.4186 58.8534C43.5586 58.8534 43.6953 58.8767 43.8286 58.9234C43.9619 58.9701 44.0853 59.0367 44.1986 59.1234C44.3119 59.2034 44.4086 59.3034 44.4886 59.4234C44.5686 59.5434 44.6253 59.6701 44.6586 59.8034C44.6986 59.9434 44.7153 60.0834 44.7086 60.2234C44.7019 60.3634 44.6719 60.5001 44.6186 60.6334C44.5653 60.7601 44.4919 60.8801 44.3986 60.9934C44.3053 61.1001 44.1986 61.1901 44.0786 61.2634C43.9586 61.3367 43.8286 61.3867 43.6886 61.4134C43.5553 61.4467 43.4186 61.4567 43.2786 61.4434C43.1386 61.4234 43.0053 61.3834 42.8786 61.3234C42.7519 61.2634 42.6353 61.1867 42.5286 61.0934C42.4286 60.9934 42.3453 60.8801 42.2786 60.7534C42.2119 60.6334 42.1686 60.5034 42.1486 60.3634C42.1219 60.2234 42.1086 60.1534 42.1086 60.1534C42.1086 60.1534 41.8153 59.2701 41.2286 57.5034C40.6353 55.7367 40.3453 54.2367 40.3586 53.0034C40.3719 51.7701 40.5353 50.5134 40.8486 49.2334C41.1553 47.9601 41.3186 47.2401 41.3386 47.0734C41.3586 46.9067 41.3986 46.7434 41.4586 46.5834C41.5186 46.4234 41.5986 46.2734 41.6986 46.1334C41.7919 45.9934 41.9019 45.8667 42.0286 45.7534C42.1553 45.6467 42.2953 45.5534 42.4486 45.4734C42.6019 45.3934 42.7586 45.3334 42.9186 45.2934C43.0853 45.2534 43.2519 45.2334 43.4186 45.2334C43.5853 45.2334 43.7519 45.2534 43.9186 45.2934C44.0786 45.3334 44.2353 45.3934 44.3886 45.4734C44.5419 45.5534 44.6819 45.6501 44.8086 45.7634C44.9353 45.8701 45.0453 45.9934 45.1386 46.1334C45.2386 46.2734 45.3186 46.4234 45.3786 46.5834C45.4386 46.7434 45.4786 46.9067 45.4986 47.0734C45.5186 47.2401 45.5286 47.3234 45.5286 47.3234Z" fill="#FFFF00"/>
<path d="M47.5249 55.3762C47.5249 55.3762 46.7382 55.5695 45.1649 55.9562C43.5916 56.3495 42.2649 56.5929 41.1849 56.6862C40.1049 56.7795 38.8316 56.9029 37.3649 57.0562C35.8982 57.2029 35.0949 57.2895 34.9549 57.3162C34.8149 57.3429 34.6749 57.3462 34.5349 57.3262C34.3949 57.3129 34.2616 57.2762 34.1349 57.2162C34.0082 57.1495 33.8949 57.0662 33.7949 56.9662C33.6882 56.8729 33.6049 56.7629 33.5449 56.6362C33.4782 56.5095 33.4349 56.3762 33.4149 56.2362C33.3949 56.0962 33.3982 55.9562 33.4249 55.8162C33.4449 55.6762 33.4916 55.5429 33.5649 55.4162C33.6316 55.2962 33.7182 55.1862 33.8249 55.0862C33.9249 54.9929 34.0416 54.9162 34.1749 54.8562C34.3016 54.8029 34.4349 54.7695 34.5749 54.7562C34.7149 54.7429 34.8549 54.7529 34.9949 54.7862C35.1349 54.8195 35.2649 54.8729 35.3849 54.9462C35.5049 55.0195 35.6082 55.1129 35.6949 55.2262C35.7882 55.3329 35.8582 55.4529 35.9049 55.5862C35.9582 55.7195 35.9882 55.8562 35.9949 55.9962C36.0016 56.1362 35.9849 56.2762 35.9449 56.4162C35.9049 56.5495 35.8416 56.6729 35.7549 56.7862C35.6749 56.9062 35.5782 57.0062 35.4649 57.0862C35.3516 57.1729 35.2282 57.2362 35.0949 57.2762C34.9549 57.3229 34.8149 57.3429 34.6749 57.3362C34.5349 57.3362 34.3982 57.3129 34.2649 57.2662C34.1316 57.2195 34.0082 57.1529 33.8949 57.0662C33.7816 56.9795 33.6882 56.8762 33.6149 56.7562C33.5349 56.6362 33.4782 56.5062 33.4449 56.3662C33.4049 56.2329 33.3916 56.0962 33.4049 55.9562C33.4116 55.8095 33.4449 55.6729 33.5049 55.5462C33.5582 55.4129 33.6316 55.2929 33.7249 55.1862C33.8182 55.0795 33.9249 54.9929 34.0449 54.9262C34.1716 54.8529 34.2349 54.8162 34.2349 54.8162C34.2349 54.8162 35.0416 54.3062 36.6549 53.2862C38.2749 52.2662 39.7049 51.7029 40.9449 51.5962C42.1849 51.4962 43.5916 51.6429 45.1649 52.0362C46.7382 52.4229 47.5782 52.6229 47.6849 52.6362C47.7982 52.6562 47.9049 52.6829 48.0049 52.7162C48.1116 52.7562 48.2082 52.8095 48.2949 52.8762C48.3882 52.9362 48.4716 53.0095 48.5449 53.0962C48.6182 53.1762 48.6816 53.2662 48.7349 53.3662C48.7882 53.4662 48.8282 53.5695 48.8549 53.6762C48.8816 53.7829 48.8949 53.8895 48.8949 53.9962C48.8949 54.1029 48.8816 54.2095 48.8549 54.3162C48.8282 54.4229 48.7882 54.5262 48.7349 54.6262C48.6816 54.7262 48.6182 54.8162 48.5449 54.8962C48.4716 54.9829 48.3882 55.0562 48.2949 55.1162C48.2082 55.1829 48.1116 55.2362 48.0049 55.2762C47.9049 55.3162 47.7982 55.3429 47.6849 55.3562C47.5782 55.3695 47.5249 55.3762 47.5249 55.3762Z" fill="#FFFF00"/>
</svg>
